SplineFontDB: 3.0
FontName: Untitled1
FullName: Untitled1
FamilyName: Untitled1
Weight: Regular
Copyright: Copyright (c) 2017, Pavel Krivanek
UComments: "2017-5-13: Created with FontForge (http://fontforge.org)"
Version: 001.000
ItalicAngle: 0
UnderlinePosition: -100
UnderlineWidth: 50
Ascent: 800
Descent: 200
InvalidEm: 0
LayerCount: 2
Layer: 0 0 "Back" 1
Layer: 1 0 "Fore" 0
XUID: [1021 41 -483493338 4151179]
StyleMap: 0x0000
FSType: 0
OS2Version: 0
OS2_WeightWidthSlopeOnly: 0
OS2_UseTypoMetrics: 1
CreationTime: 1494667411
ModificationTime: 1494688507
OS2TypoAscent: 0
OS2TypoAOffset: 1
OS2TypoDescent: 0
OS2TypoDOffset: 1
OS2TypoLinegap: 90
OS2WinAscent: 0
OS2WinAOffset: 1
OS2WinDescent: 0
OS2WinDOffset: 1
HheadAscent: 0
HheadAOffset: 1
HheadDescent: 0
HheadDOffset: 1
DEI: 91125
Encoding: ISO8859-1
UnicodeInterp: none
NameList: AGL For New Fonts
DisplaySize: -48
AntiAlias: 1
FitToEm: 0
WinInfo: 0 64 19
BeginChars: 256 62

StartChar: P
Encoding: 80 80 0
Width: 1000
VWidth: 0
Flags: H
LayerCount: 2
Fore
SplineSet
392.2265625 738.865234375 m 2
 393.487304688 743.697265625 l 1
 491.38671875 742.647460938 l 2
 567.647460938 741.806640625 593.487304688 740.966796875 608.403320312 738.235351562 c 0
 692.436523438 723.529296875 738.655273438 678.991210938 742.857421875 607.983398438 c 0
 744.958007812 574.370117188 734.244140625 524.580078125 717.857421875 492.2265625 c 0
 681.932617188 420.587890625 612.184570312 386.134765625 503.571289062 386.134765625 c 0
 485.924804688 386.134765625 465.125976562 387.184570312 457.142578125 388.235351562 c 0
 449.159179688 389.49609375 442.436523438 390.125976562 442.016601562 389.706054688 c 0
 441.596679688 389.49609375 433.823242188 353.78125 424.580078125 310.50390625 c 0
 415.125976562 267.2265625 407.142578125 229.622070312 406.512695312 227.100585938 c 2
 405.461914062 222.268554688 l 1
 343.487304688 222.268554688 l 2
 292.2265625 222.268554688 281.512695312 222.689453125 281.512695312 225.209960938 c 0
 281.512695312 227.521484375 388.235351562 722.899414062 392.2265625 738.865234375 c 2
566.176757812 643.697265625 m 0
 559.874023438 645.377929688 544.1171875 646.638671875 526.260742188 646.638671875 c 2
 496.848632812 646.638671875 l 1
 479.412109375 566.38671875 l 2
 466.596679688 507.142578125 462.815429688 485.713867188 464.706054688 484.6640625 c 0
 469.538085938 481.512695312 509.454101562 480.251953125 526.890625 482.7734375 c 0
 555.251953125 486.5546875 572.899414062 494.538085938 586.764648438 509.874023438 c 0
 602.521484375 527.310546875 613.4453125 557.7734375 613.4453125 583.823242188 c 0
 613.4453125 615.3359375 597.689453125 635.50390625 566.176757812 643.697265625 c 0
EndSplineSet
Validated: 524321
EndChar

StartChar: a
Encoding: 97 97 1
Width: 1000
VWidth: 0
Flags: H
LayerCount: 2
Fore
SplineSet
523.319335938 613.025390625 m 0
 539.916015625 615.3359375 571.638671875 613.865234375 591.596679688 609.6640625 c 0
 625.629882812 602.731445312 664.49609375 581.932617188 696.21875 553.78125 c 2
 706.302734375 544.748046875 l 1
 684.033203125 444.748046875 l 2
 656.302734375 319.958007812 655.461914062 314.49609375 653.991210938 263.865234375 c 2
 652.731445312 222.268554688 l 1
 599.790039062 222.268554688 l 1
 546.848632812 222.268554688 l 1
 545.377929688 229.202148438 l 2
 544.538085938 232.7734375 543.487304688 243.907226562 542.857421875 253.78125 c 0
 542.2265625 263.655273438 541.176757812 272.899414062 540.755859375 274.580078125 c 0
 540.125976562 276.260742188 534.874023438 272.689453125 525.840820312 264.286132812 c 0
 487.60546875 228.361328125 439.916015625 208.61328125 401.680664062 212.815429688 c 0
 340.3359375 219.328125 310.293945312 257.563476562 310.50390625 328.361328125 c 0
 310.50390625 360.713867188 315.3359375 388.865234375 326.260742188 421.638671875 c 0
 360.083984375 524.370117188 439.286132812 601.260742188 523.319335938 613.025390625 c 0
574.159179688 517.647460938 m 2
 559.033203125 525 538.655273438 526.470703125 525 521.008789062 c 0
 496.428710938 509.454101562 462.815429688 473.319335938 442.436523438 432.7734375 c 0
 428.78125 405.671875 418.067382812 360.083984375 421.008789062 341.806640625 c 0
 423.94921875 323.109375 431.092773438 316.38671875 447.478515625 316.38671875 c 0
 478.991210938 316.38671875 536.344726562 367.647460938 558.823242188 416.176757812 c 0
 565.966796875 431.302734375 576.05078125 465.125976562 581.72265625 492.857421875 c 2
 585.50390625 512.184570312 l 1
 574.159179688 517.647460938 l 2
EndSplineSet
Validated: 33
EndChar

StartChar: h
Encoding: 104 104 2
Width: 1000
VWidth: 0
Flags: H
LayerCount: 2
Fore
SplineSet
469.538085938 791.38671875 m 0
 484.6640625 792.2265625 501.680664062 793.067382812 507.563476562 793.27734375 c 2
 518.27734375 793.697265625 l 1
 519.748046875 780.8828125 l 2
 521.638671875 761.134765625 521.21875 721.21875 518.697265625 701.260742188 c 0
 517.647460938 691.38671875 511.344726562 658.823242188 505.041992188 628.78125 c 0
 498.739257812 598.739257812 492.857421875 571.428710938 492.2265625 567.857421875 c 2
 490.966796875 561.5546875 l 1
 501.05078125 570.377929688 l 2
 534.033203125 599.580078125 568.067382812 612.815429688 609.244140625 613.025390625 c 0
 643.27734375 613.025390625 666.596679688 604.202148438 684.454101562 584.6640625 c 0
 705.671875 561.344726562 713.025390625 536.764648438 713.025390625 488.025390625 c 0
 713.025390625 436.764648438 703.78125 389.49609375 680.461914062 322.05859375 c 0
 664.916015625 276.890625 633.193359375 203.571289062 629.202148438 203.361328125 c 0
 628.151367188 203.361328125 603.78125 211.5546875 575.419921875 221.638671875 c 2
 523.529296875 239.916015625 l 1
 530.8828125 255.8828125 l 2
 582.352539062 368.067382812 606.512695312 465.755859375 590.545898438 497.05859375 c 0
 584.6640625 508.61328125 575 513.235351562 559.6640625 511.5546875 c 0
 521.008789062 507.563476562 474.580078125 455.461914062 456.092773438 395.587890625 c 0
 452.521484375 384.244140625 418.067382812 227.94140625 418.067382812 223.319335938 c 0
 418.067382812 222.689453125 391.596679688 222.268554688 359.244140625 222.268554688 c 0
 310.924804688 222.268554688 300.419921875 222.689453125 300.419921875 225.209960938 c 0
 300.419921875 226.680664062 323.109375 333.193359375 350.840820312 461.974609375 c 0
 378.571289062 590.545898438 402.731445312 704.83203125 404.412109375 715.966796875 c 0
 406.092773438 726.890625 407.983398438 747.899414062 408.823242188 762.815429688 c 2
 410.293945312 789.49609375 l 1
 426.260742188 789.706054688 l 2
 435.083984375 789.916015625 454.622070312 790.755859375 469.538085938 791.38671875 c 0
EndSplineSet
Validated: 33
EndChar

StartChar: r
Encoding: 114 114 3
Width: 1000
VWidth: 0
Flags: H
LayerCount: 2
Fore
SplineSet
609.874023438 609.874023438 m 0
 625.840820312 614.916015625 668.27734375 613.025390625 678.151367188 606.932617188 c 0
 680.461914062 605.461914062 679.622070312 594.958007812 673.529296875 549.790039062 c 0
 669.328125 519.328125 665.545898438 492.436523438 664.916015625 490.125976562 c 0
 664.075195312 486.134765625 662.39453125 485.924804688 638.235351562 485.924804688 c 0
 613.025390625 485.924804688 611.974609375 485.713867188 596.638671875 478.361328125 c 0
 566.596679688 464.075195312 539.49609375 439.075195312 515.125976562 403.361328125 c 0
 487.60546875 363.025390625 473.94921875 327.731445312 460.924804688 262.815429688 c 2
 452.731445312 222.268554688 l 1
 393.27734375 222.268554688 l 1
 334.033203125 222.268554688 l 1
 335.083984375 227.100585938 l 2
 340.125976562 249.370117188 391.38671875 500.209960938 394.958007812 520.587890625 c 0
 397.478515625 535.083984375 400 559.874023438 400.629882812 575.840820312 c 2
 401.890625 604.622070312 l 1
 453.78125 604.622070312 l 1
 505.671875 604.622070312 l 1
 507.142578125 591.806640625 l 2
 507.7734375 584.6640625 508.403320312 564.49609375 508.403320312 547.268554688 c 2
 508.403320312 515.755859375 l 1
 517.2265625 528.151367188 l 2
 550.419921875 575 578.78125 600 609.874023438 609.874023438 c 0
EndSplineSet
Validated: 33
EndChar

StartChar: o
Encoding: 111 111 4
Width: 1000
VWidth: 0
Flags: H
LayerCount: 2
Fore
SplineSet
521.008789062 613.025390625 m 0
 528.571289062 614.075195312 544.538085938 614.49609375 556.72265625 614.075195312 c 0
 655.671875 610.293945312 706.092773438 553.571289062 699.370117188 453.78125 c 0
 692.647460938 354.622070312 638.4453125 266.38671875 563.4453125 232.352539062 c 0
 515.125976562 210.50390625 455.671875 206.302734375 409.6640625 221.638671875 c 0
 368.067382812 235.293945312 339.286132812 265.755859375 326.890625 308.823242188 c 0
 313.025390625 357.142578125 323.529296875 436.764648438 351.05078125 491.806640625 c 0
 363.655273438 516.806640625 372.899414062 530.041992188 391.806640625 549.580078125 c 0
 426.260742188 585.713867188 468.067382812 606.302734375 521.008789062 613.025390625 c 0
553.991210938 520.16796875 m 0
 511.974609375 532.983398438 474.790039062 504.622070312 455.8828125 445.797851562 c 0
 446.428710938 416.176757812 441.176757812 386.974609375 441.176757812 363.655273438 c 0
 441.176757812 331.512695312 447.05859375 317.647460938 464.286132812 308.823242188 c 0
 476.680664062 302.310546875 498.319335938 303.151367188 512.60546875 310.50390625 c 0
 540.3359375 324.790039062 561.974609375 363.4453125 573.739257812 420.797851562 c 0
 578.991210938 445.587890625 580.041992188 481.72265625 576.05078125 494.958007812 c 0
 572.689453125 506.302734375 562.60546875 517.647460938 553.991210938 520.16796875 c 0
EndSplineSet
Validated: 33
EndChar

StartChar: A
Encoding: 65 65 5
Width: 1000
VWidth: 0
Flags: H
LayerCount: 2
Fore
SplineSet
555.041992188 740.755859375 m 0
 556.72265625 742.647460938 575.419921875 743.27734375 635.713867188 743.27734375 c 0
 678.991210938 743.27734375 714.286132812 743.067382812 714.49609375 742.857421875 c 0
 714.49609375 742.436523438 725.209960938 625.419921875 738.025390625 482.7734375 c 2
 761.5546875 223.319335938 l 1
 698.739257812 222.689453125 l 2
 664.286132812 222.478515625 635.50390625 222.689453125 634.874023438 223.109375 c 0
 634.454101562 223.739257812 633.193359375 247.05859375 631.932617188 275.209960938 c 0
 630.8828125 303.361328125 629.622070312 328.361328125 628.991210938 331.092773438 c 2
 628.151367188 335.713867188 l 1
 535.083984375 335.713867188 l 1
 442.2265625 335.50390625 l 1
 410.924804688 278.991210938 l 1
 379.412109375 222.268554688 l 1
 308.193359375 222.268554688 l 2
 252.100585938 222.268554688 237.184570312 222.899414062 238.025390625 225 c 0
 239.075195312 227.94140625 552.100585938 736.764648438 555.041992188 740.755859375 c 0
619.748046875 529.202148438 m 0
 617.436523438 581.72265625 615.3359375 628.361328125 614.916015625 632.983398438 c 0
 614.49609375 640.755859375 610.50390625 634.244140625 556.302734375 537.39453125 c 2
 498.109375 433.403320312 l 1
 560.293945312 432.7734375 l 2
 594.538085938 432.563476562 622.899414062 432.563476562 623.319335938 432.983398438 c 0
 623.739257812 433.403320312 622.05859375 476.680664062 619.748046875 529.202148438 c 0
EndSplineSet
Validated: 524321
EndChar

StartChar: B
Encoding: 66 66 6
Width: 1000
VWidth: 0
Flags: H
LayerCount: 2
Fore
SplineSet
396.428710938 738.865234375 m 2
 397.689453125 743.697265625 l 1
 502.94140625 742.647460938 l 2
 585.50390625 741.806640625 612.184570312 740.966796875 627.310546875 738.235351562 c 0
 692.016601562 727.100585938 723.739257812 703.361328125 734.244140625 658.823242188 c 0
 742.016601562 626.05078125 734.6640625 586.134765625 715.3359375 554.202148438 c 0
 706.932617188 540.545898438 685.083984375 518.27734375 671.428710938 509.874023438 c 0
 666.176757812 506.512695312 661.764648438 503.361328125 661.764648438 503.151367188 c 0
 661.764648438 502.731445312 666.38671875 499.370117188 672.05859375 495.587890625 c 0
 692.857421875 482.142578125 707.983398438 460.50390625 714.49609375 434.454101562 c 0
 716.176757812 427.94140625 717.2265625 412.60546875 717.2265625 398.739257812 c 0
 717.016601562 323.319335938 671.21875 265.545898438 591.176757812 239.286132812 c 0
 546.428710938 224.790039062 517.436523438 222.268554688 390.755859375 222.268554688 c 0
 302.731445312 222.268554688 285.713867188 222.689453125 285.713867188 225.209960938 c 0
 285.713867188 227.521484375 392.436523438 722.899414062 396.428710938 738.865234375 c 2
588.235351562 643.067382812 m 0
 579.83203125 647.05859375 574.370117188 647.689453125 540.966796875 648.319335938 c 2
 502.94140625 649.159179688 l 1
 491.806640625 597.05859375 l 2
 485.713867188 568.27734375 480.251953125 542.647460938 479.622070312 540.125976562 c 2
 478.571289062 535.293945312 l 1
 507.563476562 535.293945312 l 2
 551.680664062 535.293945312 573.319335938 541.38671875 590.966796875 558.193359375 c 0
 603.571289062 569.958007812 609.6640625 584.033203125 610.924804688 602.731445312 c 0
 612.184570312 625.629882812 607.7734375 633.61328125 588.235351562 643.067382812 c 0
544.1171875 447.05859375 m 0
 538.025390625 448.109375 516.38671875 449.159179688 496.008789062 449.159179688 c 2
 459.033203125 449.159179688 l 1
 445.587890625 385.50390625 l 2
 438.235351562 350.629882812 431.72265625 320.797851562 431.092773438 319.538085938 c 0
 429.83203125 315.545898438 502.731445312 315.966796875 521.638671875 319.958007812 c 0
 551.680664062 326.260742188 572.689453125 340.966796875 583.403320312 362.815429688 c 0
 588.655273438 373.319335938 589.286132812 376.890625 589.286132812 395.797851562 c 0
 589.286132812 415.3359375 588.865234375 417.436523438 583.403320312 425.840820312 c 0
 576.680664062 435.924804688 562.60546875 443.487304688 544.1171875 447.05859375 c 0
EndSplineSet
Validated: 524321
EndChar

StartChar: C
Encoding: 67 67 7
Width: 1000
VWidth: 0
Flags: H
LayerCount: 2
Fore
SplineSet
560.924804688 750.419921875 m 0
 564.916015625 750.840820312 584.454101562 751.05078125 603.991210938 750.419921875 c 0
 651.680664062 749.370117188 684.244140625 742.647460938 722.478515625 725.419921875 c 2
 734.874023438 719.748046875 l 1
 723.94921875 696.428710938 l 2
 718.067382812 683.61328125 708.61328125 663.4453125 702.731445312 651.680664062 c 2
 692.2265625 630.251953125 l 1
 674.370117188 637.60546875 l 2
 643.697265625 650.209960938 620.587890625 655.041992188 591.596679688 655.041992188 c 0
 560.50390625 655.041992188 541.806640625 651.260742188 521.008789062 641.176757812 c 0
 501.890625 631.72265625 479.412109375 610.083984375 467.647460938 589.916015625 c 0
 443.067382812 548.109375 426.470703125 481.092773438 426.470703125 425.209960938 c 0
 426.470703125 355.671875 451.470703125 318.487304688 503.991210938 310.293945312 c 0
 529.202148438 306.512695312 557.352539062 310.924804688 605.041992188 326.260742188 c 0
 618.067382812 330.461914062 629.412109375 333.193359375 630.251953125 332.142578125 c 0
 631.512695312 330.671875 644.958007812 254.202148438 644.958007812 248.109375 c 0
 644.958007812 242.857421875 604.412109375 228.571289062 568.27734375 221.008789062 c 0
 537.184570312 214.49609375 483.61328125 211.974609375 458.61328125 215.755859375 c 0
 364.286132812 230.461914062 311.344726562 290.125976562 302.731445312 391.176757812 c 0
 296.008789062 468.907226562 322.689453125 574.370117188 364.916015625 638.025390625 c 0
 379.412109375 659.6640625 407.352539062 689.286132812 426.05078125 702.731445312 c 0
 462.184570312 728.361328125 505.041992188 743.697265625 560.924804688 750.419921875 c 0
EndSplineSet
Validated: 524321
EndChar

StartChar: D
Encoding: 68 68 8
Width: 1000
VWidth: 0
Flags: H
LayerCount: 2
Fore
SplineSet
364.706054688 739.916015625 m 0
 365.966796875 743.697265625 370.16796875 743.697265625 477.731445312 742.647460938 c 0
 545.16796875 742.016601562 594.958007812 740.755859375 603.78125 739.286132812 c 0
 690.3359375 725.209960938 739.286132812 685.293945312 758.823242188 613.025390625 c 0
 763.235351562 596.848632812 763.655273438 590.755859375 763.4453125 550 c 0
 763.4453125 507.563476562 763.025390625 502.94140625 756.72265625 472.268554688 c 0
 728.151367188 335.713867188 668.907226562 263.235351562 563.235351562 235.713867188 c 0
 519.1171875 224.370117188 512.184570312 223.739257812 378.78125 222.899414062 c 0
 295.587890625 222.268554688 254.202148438 222.689453125 254.202148438 223.94921875 c 0
 254.202148438 226.470703125 363.025390625 733.823242188 364.706054688 739.916015625 c 0
559.454101562 643.487304688 m 0
 540.545898438 647.478515625 470.797851562 647.899414062 469.538085938 644.1171875 c 0
 469.1171875 642.647460938 453.571289062 571.008789062 434.874023438 484.874023438 c 0
 416.176757812 398.739257812 400.419921875 326.05078125 399.790039062 323.529296875 c 2
 398.529296875 318.487304688 l 1
 449.790039062 319.328125 l 2
 507.563476562 320.377929688 514.706054688 321.638671875 543.907226562 335.924804688 c 0
 590.3359375 358.823242188 621.21875 413.235351562 633.403320312 494.328125 c 0
 646.21875 580.041992188 621.21875 630.461914062 559.454101562 643.487304688 c 0
EndSplineSet
Validated: 524321
EndChar

StartChar: E
Encoding: 69 69 9
Width: 1000
VWidth: 0
Flags: H
LayerCount: 2
Fore
SplineSet
402.521484375 739.706054688 m 0
 403.571289062 743.067382812 413.235351562 743.27734375 566.38671875 743.27734375 c 0
 655.8828125 743.27734375 728.991210938 742.647460938 728.991210938 741.806640625 c 0
 729.202148438 740.755859375 724.580078125 719.1171875 719.1171875 693.487304688 c 2
 709.033203125 646.638671875 l 1
 608.823242188 646.638671875 l 2
 553.571289062 646.638671875 508.403320312 646.21875 508.403320312 645.587890625 c 0
 508.403320312 644.958007812 503.151367188 620.797851562 496.848632812 591.806640625 c 0
 490.545898438 562.815429688 485.293945312 538.235351562 485.293945312 537.184570312 c 0
 485.293945312 536.134765625 520.797851562 535.293945312 572.689453125 535.293945312 c 2
 660.083984375 535.293945312 l 1
 659.244140625 530.671875 l 2
 658.61328125 527.94140625 654.202148438 506.302734375 649.159179688 482.352539062 c 2
 640.125976562 438.655273438 l 1
 551.680664062 438.235351562 l 1
 463.235351562 437.60546875 l 1
 450.629882812 378.78125 l 1
 437.815429688 319.958007812 l 1
 541.38671875 319.328125 l 2
 598.319335938 319.1171875 644.958007812 318.697265625 644.958007812 318.27734375 c 0
 644.958007812 317.857421875 626.890625 234.874023438 625 227.100585938 c 2
 623.94921875 222.268554688 l 1
 457.983398438 222.268554688 l 2
 357.142578125 222.268554688 292.016601562 223.109375 292.016601562 224.159179688 c 0
 292.016601562 226.470703125 400.840820312 734.033203125 402.521484375 739.706054688 c 0
EndSplineSet
Validated: 524321
EndChar

StartChar: F
Encoding: 70 70 10
Width: 1000
VWidth: 0
Flags: H
LayerCount: 2
Fore
SplineSet
404.412109375 738.655273438 m 2
 405.461914062 743.27734375 l 1
 566.176757812 743.27734375 l 2
 717.857421875 743.27734375 726.890625 743.067382812 726.890625 739.706054688 c 0
 726.680664062 737.60546875 722.689453125 716.176757812 717.857421875 691.806640625 c 2
 708.823242188 647.689453125 l 1
 612.815429688 647.05859375 l 1
 516.806640625 646.638671875 l 1
 515.755859375 641.806640625 l 2
 515.125976562 639.286132812 509.033203125 610.293945312 502.100585938 577.310546875 c 0
 495.16796875 544.328125 489.075195312 515.3359375 488.4453125 512.815429688 c 2
 487.39453125 507.983398438 l 1
 573.529296875 507.983398438 l 2
 641.176757812 507.983398438 659.6640625 507.352539062 659.6640625 505.461914062 c 0
 659.454101562 503.991210938 655.461914062 482.983398438 650.629882812 458.61328125 c 2
 641.596679688 414.49609375 l 1
 554.412109375 413.865234375 l 1
 467.2265625 413.4453125 l 1
 448.739257812 327.731445312 l 2
 438.655273438 280.671875 429.412109375 237.815429688 428.151367188 232.352539062 c 2
 426.05078125 222.268554688 l 1
 363.655273438 222.268554688 l 1
 301.05078125 222.268554688 l 1
 352.100585938 478.151367188 l 2
 380.251953125 618.697265625 403.78125 735.924804688 404.412109375 738.655273438 c 2
EndSplineSet
Validated: 524289
EndChar

StartChar: G
Encoding: 71 71 11
Width: 1000
VWidth: 0
Flags: H
LayerCount: 2
Fore
SplineSet
543.067382812 750.209960938 m 0
 562.60546875 751.890625 624.370117188 751.470703125 640.755859375 749.580078125 c 0
 677.731445312 744.958007812 709.6640625 736.974609375 741.176757812 723.94921875 c 0
 749.370117188 720.587890625 756.302734375 716.806640625 756.302734375 715.545898438 c 0
 756.302734375 714.286132812 749.159179688 696.21875 740.3359375 675.209960938 c 0
 731.512695312 654.412109375 723.529296875 635.083984375 722.478515625 632.563476562 c 2
 720.797851562 627.94140625 l 1
 707.563476562 633.193359375 l 2
 688.235351562 640.755859375 650.840820312 650.209960938 629.412109375 653.151367188 c 0
 604.83203125 656.302734375 553.78125 654.412109375 535.713867188 649.790039062 c 0
 528.151367188 647.899414062 513.235351562 642.016601562 502.521484375 636.764648438 c 0
 452.100585938 612.184570312 420.797851562 559.874023438 406.302734375 476.470703125 c 0
 401.680664062 450.209960938 401.680664062 406.302734375 406.092773438 388.025390625 c 0
 418.697265625 335.50390625 452.731445312 310.713867188 512.184570312 310.50390625 c 0
 532.142578125 310.50390625 561.974609375 314.916015625 569.328125 318.907226562 c 0
 571.21875 319.958007812 576.680664062 341.38671875 585.293945312 383.403320312 c 0
 592.436523438 417.857421875 599.370117188 451.470703125 600.629882812 458.193359375 c 2
 603.151367188 470.16796875 l 1
 666.38671875 470.16796875 l 1
 729.412109375 470.16796875 l 1
 728.361328125 465.545898438 l 2
 727.521484375 462.815429688 717.016601562 414.49609375 704.622070312 357.7734375 c 0
 692.436523438 301.260742188 681.72265625 254.202148438 680.8828125 253.571289062 c 0
 678.361328125 251.05078125 635.50390625 235.083984375 616.806640625 229.83203125 c 0
 522.268554688 202.310546875 424.790039062 207.983398438 361.344726562 244.748046875 c 0
 346.008789062 253.78125 316.596679688 281.512695312 307.7734375 295.797851562 c 0
 283.61328125 334.244140625 273.529296875 377.100585938 275.840820312 432.983398438 c 0
 277.100585938 467.016601562 281.092773438 493.907226562 289.916015625 527.521484375 c 0
 321.428710938 649.790039062 396.848632812 723.739257812 511.974609375 745.16796875 c 0
 524.370117188 747.478515625 538.4453125 749.790039062 543.067382812 750.209960938 c 0
EndSplineSet
Validated: 524321
EndChar

StartChar: H
Encoding: 72 72 12
Width: 1000
VWidth: 0
Flags: H
LayerCount: 2
Fore
SplineSet
343.907226562 738.655273438 m 2
 344.958007812 743.27734375 l 1
 406.72265625 743.27734375 l 2
 460.293945312 743.27734375 468.487304688 742.857421875 468.487304688 740.125976562 c 0
 468.487304688 737.39453125 429.202148438 551.890625 425.419921875 536.764648438 c 2
 423.94921875 531.092773438 l 1
 521.21875 531.512695312 l 1
 618.697265625 532.142578125 l 1
 638.865234375 626.680664062 l 2
 650.209960938 678.78125 660.293945312 726.260742188 661.764648438 732.352539062 c 2
 664.075195312 743.27734375 l 1
 726.05078125 743.27734375 l 2
 781.092773438 743.27734375 787.815429688 742.857421875 787.815429688 739.916015625 c 0
 787.815429688 737.39453125 683.403320312 251.890625 677.521484375 227.100585938 c 2
 676.470703125 222.268554688 l 1
 614.49609375 222.268554688 l 2
 562.184570312 222.268554688 552.521484375 222.689453125 552.521484375 225.209960938 c 0
 552.521484375 226.890625 562.39453125 273.94921875 574.580078125 329.83203125 c 0
 586.764648438 385.924804688 596.638671875 432.7734375 596.638671875 434.033203125 c 0
 596.638671875 435.924804688 573.109375 436.5546875 500.209960938 436.5546875 c 2
 403.78125 436.5546875 l 1
 401.470703125 426.680664062 l 2
 400.209960938 421.008789062 390.125976562 375 379.202148438 324.159179688 c 0
 368.27734375 273.319335938 358.823242188 229.622070312 358.193359375 227.100585938 c 2
 357.142578125 222.268554688 l 1
 295.16796875 222.268554688 l 2
 243.907226562 222.268554688 233.193359375 222.689453125 233.193359375 225.209960938 c 0
 233.193359375 227.521484375 339.916015625 722.689453125 343.907226562 738.655273438 c 2
EndSplineSet
Validated: 524289
EndChar

StartChar: I
Encoding: 73 73 13
Width: 1000
VWidth: 0
Flags: H
LayerCount: 2
Fore
SplineSet
503.571289062 737.60546875 m 2
 504.83203125 743.27734375 l 1
 567.647460938 743.27734375 l 2
 617.2265625 743.27734375 630.461914062 742.647460938 629.83203125 740.755859375 c 0
 629.202148438 739.286132812 603.78125 622.05859375 573.529296875 480.251953125 c 2
 518.067382812 222.268554688 l 1
 455.461914062 222.268554688 l 2
 417.2265625 222.268554688 392.857421875 223.109375 392.857421875 224.370117188 c 0
 392.857421875 225.419921875 417.436523438 339.916015625 447.689453125 478.991210938 c 0
 477.731445312 618.067382812 502.94140625 734.244140625 503.571289062 737.60546875 c 2
EndSplineSet
Validated: 524321
EndChar

StartChar: J
Encoding: 74 74 14
Width: 1000
VWidth: 0
Flags: H
LayerCount: 2
Fore
SplineSet
551.680664062 739.706054688 m 0
 552.731445312 743.067382812 557.563476562 743.27734375 614.706054688 743.27734375 c 0
 660.293945312 743.27734375 676.470703125 742.647460938 676.470703125 740.755859375 c 0
 676.470703125 735.713867188 610.924804688 436.344726562 603.78125 409.244140625 c 0
 576.890625 306.092773438 532.352539062 253.571289062 446.21875 223.739257812 c 0
 411.764648438 211.764648438 334.033203125 195.377929688 334.033203125 200 c 0
 334.033203125 201.260742188 330.671875 223.94921875 326.680664062 250.419921875 c 0
 322.689453125 276.890625 319.538085938 298.739257812 319.958007812 299.159179688 c 0
 320.16796875 299.370117188 332.352539062 302.521484375 347.268554688 306.092773438 c 0
 426.260742188 325.209960938 459.033203125 351.260742188 477.731445312 410.293945312 c 0
 480.671875 419.538085938 498.319335938 496.638671875 516.806640625 581.512695312 c 0
 535.293945312 666.38671875 551.05078125 737.60546875 551.680664062 739.706054688 c 0
EndSplineSet
Validated: 524321
EndChar

StartChar: K
Encoding: 75 75 15
Width: 1000
VWidth: 0
Flags: H
LayerCount: 2
Fore
SplineSet
347.899414062 739.706054688 m 0
 348.94921875 743.067382812 353.78125 743.27734375 411.974609375 743.27734375 c 2
 474.790039062 743.27734375 l 1
 473.739257812 738.655273438 l 2
 469.1171875 719.748046875 428.991210938 534.244140625 429.622070312 533.61328125 c 0
 429.83203125 533.193359375 473.109375 580.251953125 525.419921875 638.025390625 c 2
 620.377929688 743.27734375 l 1
 702.521484375 743.27734375 l 1
 784.6640625 743.27734375 l 1
 671.638671875 630.251953125 l 1
 558.61328125 517.016601562 l 1
 622.899414062 372.268554688 l 2
 658.403320312 292.647460938 687.815429688 226.260742188 688.4453125 224.790039062 c 0
 689.286132812 222.689453125 674.790039062 222.268554688 616.596679688 222.689453125 c 2
 543.697265625 223.319335938 l 1
 505.461914062 322.899414062 l 2
 484.454101562 377.731445312 466.176757812 422.899414062 465.125976562 423.319335938 c 0
 464.075195312 423.739257812 446.638671875 407.352539062 426.470703125 387.184570312 c 2
 389.706054688 350.419921875 l 1
 375.840820312 286.974609375 l 1
 361.974609375 223.319335938 l 1
 299.790039062 222.689453125 l 2
 261.5546875 222.478515625 237.39453125 222.899414062 237.39453125 224.159179688 c 0
 237.39453125 226.470703125 346.21875 734.033203125 347.899414062 739.706054688 c 0
EndSplineSet
Validated: 524321
EndChar

StartChar: L
Encoding: 76 76 16
Width: 1000
VWidth: 0
Flags: H
LayerCount: 2
Fore
SplineSet
434.244140625 738.655273438 m 2
 435.293945312 743.27734375 l 1
 497.05859375 743.27734375 l 2
 551.890625 743.27734375 558.823242188 742.857421875 558.823242188 739.916015625 c 0
 558.823242188 736.764648438 471.638671875 330.671875 469.328125 322.689453125 c 0
 468.27734375 319.1171875 474.790039062 318.907226562 583.823242188 318.907226562 c 0
 647.478515625 318.907226562 699.580078125 318.697265625 699.580078125 318.27734375 c 0
 699.580078125 317.857421875 681.512695312 234.874023438 679.622070312 227.100585938 c 2
 678.571289062 222.268554688 l 1
 501.05078125 222.268554688 l 2
 351.470703125 222.268554688 323.529296875 222.689453125 323.529296875 225.209960938 c 0
 323.529296875 227.521484375 430.251953125 722.689453125 434.244140625 738.655273438 c 2
EndSplineSet
Validated: 524321
EndChar

StartChar: M
Encoding: 77 77 17
Width: 1000
VWidth: 0
Flags: H
LayerCount: 2
Fore
SplineSet
324.580078125 740.755859375 m 0
 325.209960938 742.647460938 339.706054688 743.27734375 387.39453125 743.27734375 c 2
 449.159179688 743.27734375 l 1
 450.419921875 736.5546875 l 2
 451.05078125 732.7734375 463.865234375 658.193359375 478.991210938 571.008789062 c 0
 494.1171875 483.823242188 506.72265625 411.5546875 506.932617188 410.713867188 c 0
 507.142578125 409.874023438 550.419921875 484.244140625 602.94140625 576.260742188 c 2
 698.319335938 743.27734375 l 1
 763.025390625 743.27734375 l 2
 798.529296875 743.27734375 827.731445312 743.067382812 827.521484375 742.857421875 c 0
 827.521484375 742.436523438 814.075195312 625.419921875 797.689453125 482.7734375 c 2
 767.857421875 223.319335938 l 1
 706.72265625 222.689453125 l 1
 645.797851562 222.268554688 l 1
 667.2265625 372.899414062 l 2
 678.991210938 455.8828125 688.4453125 523.94921875 688.235351562 524.159179688 c 0
 688.025390625 524.370117188 649.159179688 456.512695312 601.890625 373.319335938 c 2
 515.755859375 222.268554688 l 1
 472.689453125 222.689453125 l 1
 429.622070312 223.319335938 l 1
 407.352539062 367.2265625 l 2
 394.958007812 446.428710938 384.6640625 513.025390625 384.244140625 515.3359375 c 0
 383.61328125 517.647460938 364.49609375 453.361328125 341.596679688 372.478515625 c 0
 318.697265625 291.596679688 299.159179688 224.790039062 298.319335938 223.739257812 c 0
 297.689453125 222.899414062 271.848632812 222.478515625 241.38671875 222.689453125 c 2
 185.50390625 223.319335938 l 1
 254.622070312 480.671875 l 2
 292.436523438 622.268554688 323.94921875 739.286132812 324.580078125 740.755859375 c 0
EndSplineSet
Validated: 524321
EndChar

StartChar: N
Encoding: 78 78 18
Width: 1000
VWidth: 0
Flags: H
LayerCount: 2
Fore
SplineSet
340.3359375 732.352539062 m 2
 342.647460938 743.27734375 l 1
 392.436523438 743.27734375 l 1
 442.2265625 743.27734375 l 1
 525 584.244140625 l 2
 588.025390625 463.655273438 608.403320312 426.470703125 609.6640625 429.412109375 c 0
 610.50390625 431.512695312 625 496.848632812 641.806640625 574.159179688 c 0
 658.61328125 651.680664062 673.94921875 721.21875 675.629882812 729.202148438 c 2
 678.991210938 743.27734375 l 1
 734.454101562 743.27734375 l 2
 777.310546875 743.27734375 789.916015625 742.647460938 789.916015625 740.755859375 c 0
 789.916015625 739.286132812 765.125976562 622.05859375 734.874023438 480.041992188 c 2
 679.622070312 222.268554688 l 1
 629.202148438 222.689453125 l 1
 578.78125 223.319335938 l 1
 497.05859375 380.461914062 l 2
 452.100585938 466.806640625 414.49609375 536.764648438 413.865234375 535.924804688 c 0
 413.025390625 534.874023438 397.05859375 464.286132812 378.361328125 378.78125 c 0
 359.6640625 293.487304688 344.1171875 223.109375 343.697265625 222.899414062 c 0
 343.27734375 222.478515625 318.067382812 222.478515625 287.39453125 222.689453125 c 2
 231.72265625 223.319335938 l 1
 284.874023438 472.268554688 l 2
 314.075195312 609.244140625 338.865234375 726.260742188 340.3359375 732.352539062 c 2
EndSplineSet
Validated: 524321
EndChar

StartChar: O
Encoding: 79 79 19
Width: 1000
VWidth: 0
Flags: H
LayerCount: 2
Fore
SplineSet
512.60546875 748.739257812 m 0
 535.50390625 752.310546875 589.075195312 751.05078125 614.286132812 746.428710938 c 0
 695.587890625 731.72265625 747.478515625 685.293945312 766.806640625 610.083984375 c 0
 777.94140625 565.966796875 776.680664062 515.755859375 762.39453125 451.05078125 c 0
 753.571289062 410.50390625 731.932617188 358.61328125 711.134765625 328.361328125 c 0
 676.05078125 277.310546875 627.731445312 241.806640625 569.538085938 224.370117188 c 0
 505.251953125 205.251953125 415.755859375 210.50390625 364.49609375 236.5546875 c 0
 316.806640625 260.50390625 285.50390625 300.419921875 270.797851562 356.092773438 c 0
 264.49609375 379.83203125 263.025390625 437.184570312 267.647460938 470.16796875 c 0
 280.041992188 554.622070312 308.823242188 619.748046875 355.671875 668.907226562 c 0
 377.100585938 691.38671875 390.3359375 702.100585938 413.025390625 714.916015625 c 0
 443.697265625 732.563476562 474.159179688 742.857421875 512.60546875 748.739257812 c 0
575.840820312 654.202148438 m 0
 533.193359375 663.235351562 488.025390625 648.109375 456.302734375 614.286132812 c 0
 416.596679688 571.848632812 390.125976562 494.1171875 390.3359375 420.797851562 c 0
 390.3359375 380.251953125 398.94921875 353.151367188 418.067382812 333.61328125 c 0
 435.293945312 315.755859375 456.932617188 307.983398438 488.4453125 307.983398438 c 0
 510.50390625 307.983398438 523.94921875 310.924804688 543.067382812 320.16796875 c 0
 583.823242188 339.49609375 615.3359375 383.61328125 632.983398438 446.008789062 c 0
 657.7734375 533.61328125 651.890625 601.260742188 617.016601562 633.403320312 c 0
 604.83203125 644.538085938 593.27734375 650.419921875 575.840820312 654.202148438 c 0
EndSplineSet
Validated: 524321
EndChar

StartChar: Q
Encoding: 81 81 20
Width: 1000
VWidth: 0
Flags: H
LayerCount: 2
Fore
SplineSet
418.067382812 748.739257812 m 0
 440.966796875 752.310546875 494.538085938 751.05078125 519.748046875 746.428710938 c 0
 601.05078125 731.72265625 652.94140625 685.293945312 672.268554688 610.083984375 c 0
 682.142578125 571.428710938 682.352539062 533.823242188 673.319335938 479.622070312 c 0
 655.251953125 372.689453125 608.403320312 295.16796875 535.293945312 251.05078125 c 0
 526.260742188 245.587890625 518.697265625 241.176757812 518.27734375 241.176757812 c 0
 517.647460938 241.176757812 510.924804688 238.235351562 502.94140625 234.6640625 c 0
 492.857421875 230.041992188 489.49609375 227.731445312 491.806640625 226.470703125 c 0
 498.319335938 222.899414062 590.755859375 184.454101562 614.49609375 175.629882812 c 0
 645.16796875 164.075195312 679.202148438 154.202148438 705.8828125 149.370117188 c 0
 736.5546875 143.907226562 798.94921875 144.328125 838.025390625 150.419921875 c 0
 854.622070312 153.151367188 868.27734375 155.041992188 868.697265625 154.622070312 c 0
 869.748046875 153.571289062 864.49609375 63.025390625 863.4453125 61.974609375 c 0
 861.344726562 59.8740234375 812.815429688 54.2021484375 776.680664062 51.890625 c 0
 691.806640625 46.638671875 621.008789062 58.8232421875 540.966796875 92.4365234375 c 0
 476.890625 119.328125 275.209960938 228.78125 237.39453125 257.142578125 c 0
 188.4453125 294.1171875 164.075195312 362.39453125 170.587890625 445.797851562 c 0
 175.629882812 513.865234375 198.739257812 583.823242188 232.352539062 634.244140625 c 0
 244.1171875 651.890625 274.159179688 684.244140625 290.755859375 696.848632812 c 0
 324.790039062 723.109375 368.907226562 741.176757812 418.067382812 748.739257812 c 0
481.302734375 654.202148438 m 0
 438.655273438 663.235351562 393.487304688 648.109375 361.764648438 614.286132812 c 0
 322.05859375 571.848632812 295.587890625 494.1171875 295.797851562 420.797851562 c 0
 295.797851562 380.251953125 304.412109375 353.151367188 323.529296875 333.61328125 c 0
 340.755859375 315.755859375 362.39453125 307.983398438 393.907226562 307.983398438 c 0
 415.966796875 307.983398438 429.412109375 310.924804688 448.529296875 320.16796875 c 0
 489.286132812 339.49609375 520.797851562 383.61328125 538.4453125 446.008789062 c 0
 563.235351562 533.61328125 557.352539062 601.260742188 522.478515625 633.403320312 c 0
 510.293945312 644.538085938 498.739257812 650.419921875 481.302734375 654.202148438 c 0
EndSplineSet
Validated: 524321
EndChar

StartChar: R
Encoding: 82 82 21
Width: 1000
VWidth: 0
Flags: H
LayerCount: 2
Fore
SplineSet
431.72265625 744.1171875 m 0
 450.419921875 746.21875 474.790039062 747.05859375 509.454101562 746.428710938 c 0
 564.286132812 745.797851562 583.61328125 742.857421875 617.016601562 731.092773438 c 0
 665.3359375 714.075195312 698.319335938 681.512695312 710.293945312 639.286132812 c 0
 715.125976562 622.05859375 714.075195312 580.041992188 708.403320312 558.403320312 c 0
 694.958007812 509.244140625 660.924804688 470.377929688 610.083984375 446.638671875 c 0
 602.731445312 443.27734375 596.638671875 439.706054688 596.638671875 438.655273438 c 0
 596.638671875 437.815429688 599.580078125 430.251953125 603.151367188 421.638671875 c 0
 614.286132812 394.958007812 623.319335938 369.1171875 640.966796875 313.235351562 c 0
 660.713867188 250.419921875 669.958007812 228.991210938 684.033203125 213.865234375 c 0
 700.840820312 196.008789062 715.3359375 189.49609375 752.521484375 183.193359375 c 0
 764.49609375 181.302734375 774.370117188 179.622070312 774.580078125 179.412109375 c 0
 774.790039062 179.202148438 771.848632812 159.6640625 767.857421875 136.134765625 c 0
 763.865234375 112.39453125 760.50390625 92.2265625 760.50390625 91.1767578125 c 0
 760.50390625 88.865234375 713.025390625 91.38671875 688.025390625 95.16796875 c 0
 634.454101562 103.361328125 604.622070312 119.328125 582.352539062 152.521484375 c 0
 565.125976562 177.731445312 556.302734375 198.94921875 525.209960938 290.545898438 c 0
 513.4453125 325.209960938 497.478515625 369.748046875 490.125976562 389.286132812 c 0
 482.563476562 409.033203125 475.209960938 429.202148438 473.529296875 434.244140625 c 0
 470.377929688 443.907226562 465.3359375 490.755859375 467.2265625 492.647460938 c 0
 467.647460938 493.27734375 475.840820312 494.958007812 484.874023438 496.638671875 c 0
 531.512695312 504.622070312 563.865234375 525.209960938 578.151367188 555.251953125 c 0
 594.1171875 589.49609375 587.39453125 621.21875 560.924804688 637.39453125 c 0
 543.27734375 648.109375 527.731445312 651.260742188 494.748046875 650.419921875 c 0
 479.412109375 650 465.966796875 649.159179688 465.3359375 648.319335938 c 0
 464.49609375 647.478515625 443.697265625 553.361328125 418.907226562 439.286132812 c 0
 394.1171875 325.209960938 373.529296875 229.622070312 372.899414062 227.100585938 c 2
 371.848632812 222.268554688 l 1
 309.874023438 222.268554688 l 2
 258.61328125 222.268554688 247.899414062 222.689453125 247.899414062 225.209960938 c 0
 247.899414062 228.571289062 356.932617188 733.403320312 357.983398438 734.244140625 c 0
 358.823242188 735.083984375 398.94921875 740.545898438 431.72265625 744.1171875 c 0
EndSplineSet
Validated: 524321
EndChar

StartChar: S
Encoding: 83 83 22
Width: 1000
VWidth: 0
Flags: H
LayerCount: 2
Fore
SplineSet
507.142578125 748.739257812 m 0
 530.041992188 752.521484375 580.8828125 750.840820312 607.142578125 745.587890625 c 0
 634.033203125 740.125976562 664.916015625 730.041992188 688.865234375 718.907226562 c 0
 699.790039062 713.655273438 709.033203125 709.244140625 709.6640625 708.823242188 c 0
 710.083984375 708.193359375 702.731445312 687.184570312 693.27734375 661.764648438 c 2
 676.05078125 615.545898438 l 1
 655.8828125 624.580078125 l 2
 609.244140625 645.16796875 581.302734375 651.890625 548.739257812 650.419921875 c 0
 526.470703125 649.370117188 516.38671875 645.797851562 505.8828125 634.6640625 c 0
 498.529296875 627.100585938 495.797851562 619.328125 495.797851562 606.932617188 c 0
 495.797851562 584.6640625 509.244140625 568.487304688 557.7734375 532.142578125 c 0
 575.209960938 519.1171875 595.377929688 502.94140625 602.731445312 496.21875 c 0
 644.1171875 458.403320312 666.806640625 410.293945312 663.025390625 367.857421875 c 0
 656.932617188 300.419921875 616.38671875 249.159179688 551.680664062 227.310546875 c 0
 485.083984375 204.622070312 385.713867188 215.125976562 304.202148438 253.151367188 c 0
 295.16796875 257.352539062 287.815429688 261.5546875 287.815429688 262.39453125 c 0
 287.815429688 264.286132812 323.319335938 357.352539062 324.580078125 358.403320312 c 0
 325 359.033203125 335.293945312 354.622070312 347.268554688 348.739257812 c 0
 419.328125 313.655273438 484.244140625 306.512695312 514.916015625 330.041992188 c 0
 526.890625 339.075195312 532.352539062 350.209960938 533.193359375 367.857421875 c 0
 534.874023438 395.377929688 521.638671875 411.5546875 464.916015625 451.890625 c 0
 417.436523438 485.924804688 393.487304688 511.344726562 378.151367188 544.328125 c 0
 369.1171875 563.4453125 365.545898438 580.041992188 365.545898438 601.260742188 c 0
 365.545898438 624.580078125 369.748046875 642.436523438 380.671875 665.545898438 c 0
 387.60546875 680.251953125 392.436523438 686.5546875 407.352539062 701.260742188 c 0
 433.823242188 727.521484375 463.235351562 741.596679688 507.142578125 748.739257812 c 0
EndSplineSet
Validated: 524321
EndChar

StartChar: T
Encoding: 84 84 23
Width: 1000
VWidth: 0
Flags: H
LayerCount: 2
Fore
SplineSet
310.293945312 697.689453125 m 2
 320.377929688 743.27734375 l 1
 536.134765625 743.27734375 l 2
 655.041992188 743.27734375 752.100585938 742.647460938 752.100585938 741.806640625 c 0
 752.310546875 740.755859375 747.689453125 719.1171875 742.2265625 693.487304688 c 2
 732.142578125 646.638671875 l 1
 655.251953125 646.638671875 l 1
 578.151367188 646.638671875 l 1
 577.100585938 642.016601562 l 2
 576.470703125 639.286132812 555.8828125 543.907226562 531.302734375 429.83203125 c 2
 486.5546875 222.268554688 l 1
 423.94921875 222.268554688 l 1
 361.344726562 222.268554688 l 1
 362.39453125 227.100585938 l 2
 367.436523438 248.739257812 451.680664062 641.38671875 451.680664062 643.697265625 c 0
 451.680664062 646.21875 439.49609375 646.638671875 376.05078125 646.638671875 c 0
 317.016601562 646.638671875 300.419921875 647.268554688 300.419921875 649.370117188 c 0
 300.419921875 650.629882812 304.83203125 672.478515625 310.293945312 697.689453125 c 2
EndSplineSet
Validated: 524321
EndChar

StartChar: U
Encoding: 85 85 24
Width: 1000
VWidth: 0
Flags: H
LayerCount: 2
Fore
SplineSet
345.797851562 739.706054688 m 0
 346.848632812 743.067382812 351.680664062 743.27734375 408.823242188 743.27734375 c 0
 454.412109375 743.27734375 470.587890625 742.647460938 470.587890625 740.755859375 c 0
 470.587890625 739.49609375 455.461914062 669.328125 436.974609375 585.083984375 c 0
 418.487304688 500.840820312 401.890625 423.319335938 400 412.60546875 c 0
 395.16796875 385.293945312 396.638671875 356.72265625 403.361328125 343.487304688 c 0
 409.454101562 331.302734375 419.328125 322.268554688 432.563476562 316.38671875 c 0
 444.328125 311.134765625 473.739257812 309.033203125 489.286132812 312.39453125 c 0
 523.739257812 319.748046875 552.94140625 347.05859375 569.958007812 388.235351562 c 0
 577.310546875 405.8828125 581.092773438 421.428710938 619.958007812 596.638671875 c 2
 652.310546875 743.27734375 l 1
 713.865234375 743.27734375 l 2
 767.016601562 743.27734375 775.209960938 742.857421875 775.209960938 740.125976562 c 0
 775.209960938 734.454101562 704.202148438 417.2265625 698.739257812 398.529296875 c 0
 675.840820312 319.748046875 636.974609375 267.436523438 580.8828125 240.3359375 c 0
 541.806640625 221.21875 511.134765625 215.125976562 453.78125 215.125976562 c 0
 418.067382812 215.125976562 410.293945312 215.755859375 392.857421875 219.958007812 c 0
 328.571289062 235.713867188 290.966796875 272.478515625 278.151367188 332.142578125 c 0
 274.159179688 350.209960938 273.739257812 393.27734375 277.310546875 416.806640625 c 0
 279.412109375 431.092773438 342.647460938 729.412109375 345.797851562 739.706054688 c 0
EndSplineSet
Validated: 524321
EndChar

StartChar: V
Encoding: 86 86 25
Width: 1000
VWidth: 0
Flags: H
LayerCount: 2
Fore
SplineSet
304.622070312 740.3359375 m 0
 304.622070312 742.857421875 314.286132812 743.27734375 363.235351562 743.27734375 c 2
 422.05859375 743.27734375 l 1
 423.109375 732.352539062 l 2
 423.739257812 726.260742188 428.571289062 652.310546875 433.823242188 567.857421875 c 0
 439.075195312 483.61328125 443.907226562 407.983398438 444.538085938 399.790039062 c 2
 445.797851562 385.083984375 l 1
 452.100585938 392.436523438 l 2
 471.638671875 415.3359375 507.7734375 461.764648438 522.478515625 482.7734375 c 0
 581.512695312 567.016601562 612.184570312 636.344726562 635.293945312 737.60546875 c 2
 636.5546875 743.27734375 l 1
 698.739257812 743.27734375 l 2
 756.932617188 743.27734375 760.713867188 743.067382812 759.6640625 739.706054688 c 0
 759.033203125 737.60546875 757.142578125 729.83203125 755.251953125 722.268554688 c 0
 735.924804688 644.538085938 698.529296875 562.39453125 647.478515625 484.874023438 c 0
 615.755859375 436.764648438 585.713867188 398.94921875 479.202148438 272.899414062 c 2
 436.344726562 222.268554688 l 1
 394.748046875 222.268554688 l 1
 353.151367188 222.268554688 l 1
 351.890625 233.403320312 l 2
 350.209960938 248.529296875 304.622070312 736.764648438 304.622070312 740.3359375 c 0
EndSplineSet
Validated: 524321
EndChar

StartChar: W
Encoding: 87 87 26
Width: 1000
VWidth: 0
Flags: H
LayerCount: 2
Fore
SplineSet
194.538085938 731.302734375 m 2
 193.697265625 743.27734375 l 1
 254.412109375 743.27734375 l 1
 315.125976562 743.27734375 l 1
 315.545898438 575.840820312 l 1
 316.176757812 408.193359375 l 1
 344.748046875 452.310546875 l 2
 420.377929688 569.1171875 452.731445312 634.244140625 474.790039062 714.916015625 c 2
 482.352539062 742.2265625 l 1
 531.932617188 742.857421875 l 1
 581.72265625 743.27734375 l 1
 582.983398438 736.5546875 l 2
 583.61328125 732.7734375 592.016601562 661.134765625 601.890625 577.310546875 c 0
 611.764648438 493.487304688 619.958007812 423.109375 620.377929688 420.797851562 c 0
 621.21875 413.655273438 685.50390625 522.689453125 707.142578125 567.857421875 c 0
 730.041992188 615.755859375 744.328125 663.4453125 751.470703125 715.966796875 c 2
 755.041992188 743.27734375 l 1
 818.487304688 743.27734375 l 1
 881.72265625 743.27734375 l 1
 877.94140625 721.848632812 l 2
 862.60546875 632.7734375 836.5546875 562.39453125 787.815429688 478.571289062 c 0
 779.412109375 464.075195312 759.244140625 431.092773438 743.067382812 405.041992188 c 0
 704.202148438 342.436523438 680.041992188 300.209960938 659.033203125 257.563476562 c 2
 641.806640625 222.268554688 l 1
 592.2265625 222.268554688 l 1
 542.857421875 222.268554688 l 1
 516.596679688 363.025390625 l 2
 502.310546875 440.3359375 490.125976562 503.78125 489.49609375 503.571289062 c 0
 488.865234375 503.571289062 481.72265625 489.706054688 473.319335938 472.689453125 c 0
 455.8828125 436.974609375 437.184570312 406.512695312 397.899414062 348.529296875 c 0
 382.563476562 325.840820312 357.7734375 288.235351562 343.067382812 264.916015625 c 2
 316.176757812 222.268554688 l 1
 266.38671875 222.268554688 l 1
 216.806640625 222.268554688 l 1
 215.545898438 237.60546875 l 2
 214.916015625 245.797851562 210.083984375 357.7734375 204.83203125 485.924804688 c 0
 199.790039062 614.286132812 195.16796875 724.580078125 194.538085938 731.302734375 c 2
EndSplineSet
Validated: 524321
EndChar

StartChar: X
Encoding: 88 88 27
Width: 1000
VWidth: 0
Flags: H
LayerCount: 2
Fore
SplineSet
315.755859375 740.755859375 m 0
 314.916015625 742.857421875 329.412109375 743.27734375 386.5546875 742.857421875 c 2
 458.403320312 742.2265625 l 1
 493.067382812 662.60546875 l 2
 511.974609375 618.697265625 527.731445312 582.563476562 527.94140625 582.142578125 c 0
 528.361328125 581.932617188 556.72265625 618.067382812 591.38671875 662.39453125 c 2
 653.991210938 743.27734375 l 1
 728.151367188 743.27734375 l 2
 769.1171875 743.27734375 802.521484375 742.857421875 802.521484375 742.2265625 c 0
 802.521484375 741.596679688 752.731445312 682.352539062 692.016601562 610.50390625 c 0
 619.538085938 524.790039062 581.932617188 478.991210938 582.563476562 476.680664062 c 0
 583.193359375 474.790039062 609.6640625 417.2265625 641.596679688 348.739257812 c 0
 673.529296875 280.251953125 699.580078125 223.739257812 699.580078125 223.319335938 c 0
 699.580078125 222.689453125 668.067382812 222.268554688 629.83203125 222.268554688 c 2
 559.874023438 222.268554688 l 1
 520.16796875 312.60546875 l 2
 498.109375 362.39453125 479.622070312 402.310546875 478.78125 401.470703125 c 0
 478.151367188 400.419921875 446.428710938 359.874023438 408.61328125 311.134765625 c 2
 339.916015625 222.268554688 l 1
 266.38671875 222.268554688 l 2
 208.61328125 222.268554688 193.27734375 222.899414062 194.538085938 224.790039062 c 0
 196.008789062 227.310546875 414.49609375 495.797851562 421.848632812 504.202148438 c 0
 424.580078125 507.563476562 419.958007812 518.487304688 370.797851562 622.899414062 c 0
 341.176757812 686.344726562 316.176757812 739.286132812 315.755859375 740.755859375 c 0
EndSplineSet
Validated: 524321
EndChar

StartChar: Y
Encoding: 89 89 28
Width: 1000
VWidth: 0
Flags: H
LayerCount: 2
Fore
SplineSet
294.958007812 739.706054688 m 0
 293.907226562 743.067382812 297.899414062 743.27734375 356.932617188 743.27734375 c 0
 415.125976562 743.27734375 419.958007812 743.067382812 421.008789062 739.706054688 c 0
 421.428710938 737.60546875 433.823242188 687.184570312 448.319335938 627.731445312 c 0
 463.025390625 568.27734375 475.629882812 517.857421875 476.470703125 515.545898438 c 0
 477.731445312 512.60546875 494.748046875 535.713867188 557.983398438 626.890625 c 2
 637.60546875 742.2265625 l 1
 703.361328125 742.857421875 l 2
 739.286132812 743.067382812 768.907226562 742.857421875 768.907226562 742.2265625 c 0
 768.907226562 741.596679688 712.184570312 660.924804688 642.857421875 562.815429688 c 2
 516.806640625 384.454101562 l 1
 499.159179688 303.78125 l 1
 481.72265625 223.319335938 l 1
 419.538085938 222.689453125 l 2
 370.377929688 222.268554688 357.142578125 222.689453125 357.142578125 224.790039062 c 0
 357.352539062 226.260742188 365.545898438 264.916015625 375.629882812 310.50390625 c 2
 394.1171875 393.487304688 l 1
 345.16796875 564.706054688 l 2
 318.067382812 658.823242188 295.587890625 737.60546875 294.958007812 739.706054688 c 0
EndSplineSet
Validated: 524321
EndChar

StartChar: Z
Encoding: 90 90 29
Width: 1000
VWidth: 0
Flags: H
LayerCount: 2
Fore
SplineSet
371.008789062 739.706054688 m 0
 372.05859375 743.067382812 382.142578125 743.27734375 546.008789062 743.27734375 c 2
 719.958007812 743.27734375 l 1
 721.21875 713.4453125 l 2
 722.05859375 696.848632812 722.689453125 676.890625 722.689453125 668.697265625 c 2
 722.689453125 653.991210938 l 1
 573.529296875 486.974609375 l 1
 424.370117188 319.958007812 l 1
 539.075195312 319.328125 l 2
 646.848632812 318.907226562 653.571289062 318.697265625 652.521484375 315.125976562 c 0
 651.260742188 311.344726562 632.352539062 224.790039062 632.352539062 223.109375 c 0
 632.352539062 222.689453125 552.521484375 222.268554688 455.041992188 222.268554688 c 2
 277.731445312 222.268554688 l 1
 276.470703125 242.857421875 l 2
 275.840820312 253.991210938 274.790039062 273.739257812 274.159179688 286.344726562 c 2
 272.899414062 309.454101562 l 1
 417.016601562 477.521484375 l 1
 561.344726562 645.587890625 l 1
 456.092773438 646.21875 l 2
 398.109375 646.428710938 350.840820312 647.05859375 350.840820312 647.478515625 c 0
 350.840820312 649.159179688 369.748046875 735.713867188 371.008789062 739.706054688 c 0
EndSplineSet
Validated: 524321
EndChar

StartChar: b
Encoding: 98 98 30
Width: 1000
VWidth: 0
Flags: H
LayerCount: 2
Fore
SplineSet
445.16796875 790.966796875 m 2
 465.545898438 792.016601562 489.916015625 793.067382812 499.159179688 793.27734375 c 2
 516.38671875 793.697265625 l 1
 517.647460938 774.370117188 l 2
 520.587890625 734.874023438 515.125976562 695.377929688 494.538085938 607.983398438 c 0
 488.235351562 581.512695312 483.193359375 559.454101562 483.193359375 559.033203125 c 0
 483.193359375 558.403320312 488.235351562 562.39453125 494.1171875 567.857421875 c 0
 509.454101562 581.72265625 520.377929688 588.655273438 540.3359375 598.319335938 c 0
 564.286132812 609.874023438 581.092773438 613.655273438 606.092773438 613.865234375 c 0
 651.470703125 613.865234375 682.983398438 595.16796875 700.629882812 557.983398438 c 0
 711.5546875 534.454101562 715.125976562 513.025390625 713.655273438 476.680664062 c 0
 710.713867188 398.94921875 681.72265625 327.94140625 633.403320312 280.041992188 c 0
 588.865234375 235.924804688 531.72265625 212.815429688 467.436523438 213.025390625 c 0
 421.21875 213.235351562 383.823242188 224.790039062 343.907226562 251.05078125 c 0
 326.260742188 262.815429688 306.72265625 280.461914062 306.72265625 284.874023438 c 0
 306.72265625 286.764648438 327.100585938 378.571289062 352.100585938 488.865234375 c 0
 377.100585938 599.370117188 399.370117188 699.580078125 401.470703125 711.764648438 c 0
 403.78125 723.94921875 406.092773438 746.21875 406.932617188 761.344726562 c 2
 408.193359375 789.075195312 l 1
 445.16796875 790.966796875 l 2
580.8828125 505.251953125 m 0
 574.580078125 511.5546875 572.899414062 512.184570312 561.764648438 512.184570312 c 0
 554.83203125 511.974609375 544.958007812 510.293945312 539.49609375 508.193359375 c 0
 503.151367188 493.907226562 463.025390625 443.907226562 449.790039062 396.638671875 c 0
 445.377929688 380.461914062 432.7734375 326.260742188 432.7734375 323.109375 c 0
 432.7734375 322.05859375 438.235351562 318.697265625 444.958007812 315.3359375 c 0
 455.461914062 310.293945312 459.244140625 309.454101562 475.840820312 309.454101562 c 0
 493.067382812 309.454101562 496.008789062 310.083984375 509.454101562 316.596679688 c 0
 527.310546875 325.209960938 550.419921875 347.478515625 561.344726562 366.38671875 c 0
 572.689453125 385.924804688 583.193359375 414.075195312 588.025390625 438.025390625 c 0
 595.377929688 473.739257812 593.27734375 492.857421875 580.8828125 505.251953125 c 0
EndSplineSet
EndChar

StartChar: c
Encoding: 99 99 31
Width: 1000
VWidth: 0
Flags: H
LayerCount: 2
Fore
SplineSet
537.60546875 613.025390625 m 0
 557.7734375 615.545898438 591.596679688 613.655273438 610.293945312 608.61328125 c 0
 627.94140625 603.991210938 646.848632812 595.377929688 661.764648438 584.874023438 c 0
 666.806640625 581.302734375 671.848632812 577.731445312 672.899414062 577.100585938 c 0
 674.370117188 576.05078125 637.60546875 500.840820312 633.193359375 495.587890625 c 0
 632.7734375 495.16796875 627.94140625 497.689453125 622.268554688 501.260742188 c 0
 609.6640625 509.454101562 598.109375 513.655273438 580.041992188 516.596679688 c 0
 532.7734375 524.159179688 495.587890625 490.755859375 476.05078125 423.109375 c 0
 462.184570312 375.419921875 466.38671875 332.983398438 486.344726562 317.647460938 c 0
 501.470703125 306.302734375 529.83203125 308.403320312 559.454101562 323.529296875 c 0
 566.38671875 326.890625 572.689453125 328.991210938 573.529296875 327.94140625 c 0
 574.370117188 327.100585938 580.671875 312.184570312 587.815429688 294.748046875 c 0
 594.748046875 277.521484375 602.100585938 259.6640625 603.78125 255.461914062 c 2
 607.142578125 247.478515625 l 1
 583.61328125 235.924804688 l 2
 552.521484375 220.797851562 533.193359375 215.755859375 499.790039062 214.49609375 c 0
 466.806640625 213.025390625 445.16796875 217.016601562 420.797851562 228.78125 c 0
 389.286132812 243.907226562 367.857421875 270.797851562 356.72265625 309.454101562 c 0
 352.521484375 324.159179688 351.890625 330.8828125 351.890625 363.025390625 c 0
 352.100585938 411.134765625 359.454101562 445.587890625 378.151367188 486.134765625 c 0
 411.974609375 559.244140625 468.487304688 604.412109375 537.60546875 613.025390625 c 0
EndSplineSet
EndChar

StartChar: d
Encoding: 100 100 32
Width: 1000
VWidth: 0
Flags: H
LayerCount: 2
Fore
SplineSet
655.251953125 790.966796875 m 2
 675.629882812 792.016601562 700 793.067382812 709.244140625 793.27734375 c 2
 726.470703125 793.697265625 l 1
 727.94140625 773.319335938 l 2
 730.8828125 731.932617188 725 693.697265625 699.580078125 583.61328125 c 0
 651.470703125 376.680664062 642.2265625 328.571289062 636.344726562 254.202148438 c 2
 633.823242188 222.268554688 l 1
 583.193359375 222.689453125 l 1
 532.563476562 223.319335938 l 1
 528.571289062 244.328125 l 2
 526.260742188 255.8828125 524.159179688 265.755859375 523.739257812 266.176757812 c 0
 523.319335938 266.806640625 520.377929688 264.706054688 517.2265625 261.764648438 c 0
 510.293945312 255.041992188 482.983398438 236.974609375 471.638671875 231.302734375 c 0
 442.857421875 216.806640625 408.61328125 209.874023438 383.61328125 213.655273438 c 0
 331.512695312 221.428710938 300.629882812 253.78125 291.806640625 310.713867188 c 0
 288.865234375 330.041992188 290.545898438 375.209960938 295.16796875 396.638671875 c 0
 302.731445312 431.512695312 319.538085938 471.008789062 339.49609375 501.05078125 c 0
 353.991210938 522.899414062 384.6640625 555.251953125 404.412109375 569.958007812 c 0
 456.932617188 608.823242188 518.067382812 623.109375 573.109375 609.6640625 c 0
 580.461914062 607.7734375 586.974609375 606.72265625 587.39453125 607.352539062 c 0
 589.075195312 609.033203125 604.83203125 677.310546875 610.50390625 707.563476562 c 0
 613.4453125 723.109375 616.38671875 747.899414062 617.016601562 762.39453125 c 2
 618.27734375 789.075195312 l 1
 655.251953125 790.966796875 l 2
545.16796875 515.3359375 m 0
 528.78125 519.748046875 521.008789062 520.16796875 507.983398438 517.647460938 c 0
 459.6640625 507.563476562 405.461914062 422.899414062 405.461914062 357.7734375 c 0
 405.671875 328.571289062 414.916015625 316.38671875 437.39453125 316.38671875 c 0
 456.302734375 316.596679688 486.764648438 334.244140625 507.142578125 356.932617188 c 0
 532.563476562 385.083984375 541.806640625 407.563476562 556.72265625 477.521484375 c 0
 563.865234375 511.134765625 564.075195312 510.083984375 545.16796875 515.3359375 c 0
EndSplineSet
EndChar

StartChar: e
Encoding: 101 101 33
Width: 1000
VWidth: 0
Flags: H
LayerCount: 2
Fore
SplineSet
538.865234375 611.974609375 m 0
 582.563476562 619.748046875 628.151367188 608.193359375 653.361328125 583.193359375 c 0
 694.1171875 542.2265625 687.815429688 473.109375 639.286132812 430.251953125 c 0
 606.302734375 401.05078125 556.512695312 376.470703125 478.361328125 350.419921875 c 0
 447.478515625 340.3359375 445.377929688 339.286132812 446.638671875 335.083984375 c 0
 453.991210938 311.344726562 467.2265625 303.78125 503.361328125 302.521484375 c 0
 538.025390625 301.260742188 550.840820312 305.041992188 607.352539062 333.193359375 c 0
 608.403320312 333.61328125 638.655273438 260.713867188 638.655273438 257.563476562 c 0
 638.655273438 254.83203125 598.94921875 235.924804688 579.202148438 228.78125 c 0
 546.638671875 217.436523438 521.848632812 213.235351562 485.293945312 213.235351562 c 0
 448.529296875 213.235351562 430.8828125 216.806640625 405.8828125 228.991210938 c 0
 375.209960938 243.697265625 351.05078125 276.260742188 343.27734375 312.60546875 c 0
 339.286132812 331.932617188 340.3359375 385.50390625 345.377929688 408.193359375 c 0
 363.655273438 490.755859375 414.286132812 559.244140625 482.142578125 593.067382812 c 0
 504.622070312 604.202148438 516.176757812 608.193359375 538.865234375 611.974609375 c 0
569.748046875 519.328125 m 0
 546.008789062 531.092773438 513.4453125 515.755859375 486.134765625 479.83203125 c 0
 473.739257812 463.655273438 456.512695312 431.72265625 459.6640625 430.671875 c 0
 463.235351562 429.622070312 517.857421875 449.370117188 539.075195312 459.6640625 c 0
 562.184570312 470.797851562 573.94921875 481.302734375 577.521484375 494.1171875 c 0
 580.251953125 504.622070312 576.890625 515.545898438 569.748046875 519.328125 c 0
EndSplineSet
EndChar

StartChar: f
Encoding: 102 102 34
Width: 1000
VWidth: 0
Flags: H
LayerCount: 2
Fore
SplineSet
631.092773438 797.899414062 m 0
 665.545898438 800.629882812 701.470703125 797.05859375 739.49609375 787.184570312 c 0
 752.731445312 783.823242188 764.286132812 780.251953125 765.3359375 779.202148438 c 0
 766.596679688 777.94140625 743.907226562 698.739257812 740.3359375 692.647460938 c 0
 739.916015625 692.016601562 728.991210938 694.1171875 715.966796875 697.478515625 c 0
 684.6640625 705.671875 651.260742188 707.563476562 633.61328125 702.521484375 c 0
 617.016601562 697.689453125 601.470703125 682.352539062 594.958007812 664.49609375 c 0
 590.3359375 652.100585938 585.713867188 631.932617188 582.983398438 612.60546875 c 2
 581.72265625 602.521484375 l 1
 628.571289062 602.100585938 l 1
 675.629882812 601.470703125 l 1
 668.27734375 559.033203125 l 1
 660.924804688 516.38671875 l 1
 614.706054688 516.38671875 l 1
 568.27734375 516.38671875 l 1
 553.78125 417.016601562 l 2
 531.512695312 263.655273438 525.419921875 225 519.958007812 203.361328125 c 0
 496.428710938 110.083984375 445.377929688 54.412109375 366.596679688 36.134765625 c 0
 343.487304688 30.671875 285.083984375 30.671875 255.251953125 36.134765625 c 0
 243.697265625 38.2353515625 233.403320312 40.755859375 232.352539062 41.806640625 c 0
 231.092773438 42.857421875 233.61328125 62.39453125 238.4453125 90.966796875 c 0
 246.21875 136.344726562 246.848632812 138.4453125 250.840820312 137.184570312 c 0
 253.361328125 136.5546875 268.487304688 135.50390625 284.6640625 134.6640625 c 0
 307.563476562 133.823242188 317.2265625 134.244140625 328.361328125 136.974609375 c 0
 367.857421875 146.21875 389.286132812 169.538085938 402.521484375 217.2265625 c 0
 406.092773438 230.671875 449.580078125 505.041992188 449.580078125 515.125976562 c 0
 449.580078125 515.755859375 435.083984375 516.38671875 417.436523438 516.38671875 c 2
 385.293945312 516.38671875 l 1
 392.647460938 559.454101562 l 1
 400.209960938 602.521484375 l 1
 431.092773438 602.521484375 l 2
 461.5546875 602.521484375 462.184570312 602.521484375 463.235351562 607.352539062 c 0
 463.655273438 609.874023438 465.966796875 622.899414062 468.487304688 636.134765625 c 0
 485.924804688 736.344726562 540.3359375 790.545898438 631.092773438 797.899414062 c 0
EndSplineSet
EndChar

StartChar: g
Encoding: 103 103 35
Width: 1000
VWidth: 0
Flags: H
LayerCount: 2
Fore
SplineSet
694.328125 700.629882812 m 0
 705.8828125 706.512695312 715.966796875 710.924804688 716.596679688 710.083984375 c 0
 717.647460938 708.61328125 756.302734375 607.563476562 756.302734375 605.8828125 c 0
 756.302734375 605.461914062 747.05859375 601.890625 735.924804688 598.319335938 c 0
 701.260742188 586.974609375 657.983398438 561.974609375 659.033203125 553.991210938 c 0
 659.244140625 552.310546875 661.5546875 544.538085938 663.865234375 536.344726562 c 0
 676.260742188 495.16796875 664.49609375 439.075195312 634.454101562 394.328125 c 0
 609.454101562 357.352539062 568.697265625 325.209960938 527.731445312 310.50390625 c 0
 512.815429688 305.041992188 508.403320312 299.370117188 508.403320312 285.713867188 c 0
 508.403320312 274.790039062 514.286132812 266.596679688 533.61328125 250 c 0
 568.697265625 219.958007812 580.8828125 208.193359375 589.916015625 196.21875 c 0
 630.671875 140.966796875 615.125976562 75 554.202148438 45.7978515625 c 0
 519.538085938 29.2021484375 477.94140625 22.05859375 415.966796875 22.2685546875 c 0
 322.689453125 22.478515625 268.27734375 42.857421875 247.478515625 85.2939453125 c 0
 240.966796875 98.3193359375 240.545898438 100.629882812 240.545898438 121.428710938 c 0
 240.545898438 140.966796875 241.176757812 144.958007812 246.21875 155.461914062 c 0
 261.134765625 187.39453125 293.487304688 208.823242188 364.49609375 234.033203125 c 2
 389.706054688 242.857421875 l 1
 389.075195312 254.622070312 l 2
 388.025390625 271.008789062 393.067382812 284.454101562 405.461914062 298.319335938 c 2
 415.966796875 310.083984375 l 1
 404.83203125 316.38671875 l 2
 385.083984375 327.521484375 369.748046875 346.638671875 361.134765625 371.428710938 c 0
 356.72265625 383.403320312 356.302734375 388.865234375 356.302734375 417.647460938 c 0
 356.302734375 447.05859375 356.932617188 452.100585938 362.184570312 468.907226562 c 0
 383.823242188 539.49609375 435.293945312 593.067382812 496.848632812 608.823242188 c 0
 517.2265625 614.075195312 552.100585938 614.49609375 575 609.6640625 c 0
 588.865234375 606.932617188 591.176757812 606.72265625 592.647460938 609.454101562 c 0
 597.899414062 618.487304688 616.38671875 641.176757812 629.202148438 653.991210938 c 0
 647.689453125 672.689453125 667.436523438 686.764648438 694.328125 700.629882812 c 0
546.21875 525.209960938 m 0
 518.907226562 539.075195312 482.142578125 509.244140625 464.916015625 459.244140625 c 0
 457.983398438 438.655273438 457.142578125 415.545898438 463.4453125 405.041992188 c 0
 472.268554688 389.916015625 488.865234375 384.454101562 505.251953125 391.176757812 c 0
 514.075195312 394.958007812 530.041992188 409.454101562 538.235351562 421.21875 c 0
 553.991210938 444.328125 563.025390625 470.587890625 563.025390625 494.538085938 c 0
 563.025390625 509.6640625 557.563476562 519.538085938 546.21875 525.209960938 c 0
459.244140625 180.461914062 m 0
 448.739257812 188.235351562 449.370117188 188.235351562 415.966796875 177.731445312 c 0
 379.83203125 166.176757812 355.461914062 150 351.680664062 134.6640625 c 0
 349.370117188 126.05078125 356.302734375 115.125976562 367.647460938 109.454101562 c 0
 380.251953125 102.94140625 403.571289062 100.209960938 426.680664062 102.731445312 c 0
 463.025390625 106.512695312 485.293945312 120.16796875 485.293945312 139.286132812 c 0
 485.293945312 155.461914062 478.361328125 166.38671875 459.244140625 180.461914062 c 0
EndSplineSet
EndChar

StartChar: i
Encoding: 105 105 36
Width: 1000
VWidth: 0
Flags: H
LayerCount: 2
Fore
SplineSet
524.790039062 790.755859375 m 0
 539.286132812 794.958007812 562.39453125 793.067382812 576.260742188 786.764648438 c 0
 600 775.840820312 614.075195312 753.78125 614.075195312 727.521484375 c 0
 614.075195312 700.629882812 601.260742188 680.8828125 575.629882812 668.907226562 c 0
 564.075195312 663.4453125 559.6640625 662.60546875 544.958007812 662.60546875 c 0
 529.83203125 662.60546875 526.260742188 663.4453125 514.075195312 669.328125 c 0
 505.8828125 673.529296875 497.05859375 679.83203125 492.647460938 684.874023438 c 0
 461.764648438 721.21875 478.78125 777.521484375 524.790039062 790.755859375 c 0
469.958007812 572.689453125 m 2
 471.21875 604.622070312 l 1
 527.94140625 604.622070312 l 1
 584.6640625 604.622070312 l 1
 583.403320312 560.083984375 l 2
 582.142578125 505.671875 582.142578125 505.461914062 546.638671875 345.16796875 c 2
 519.538085938 223.319335938 l 1
 460.50390625 222.689453125 l 2
 411.344726562 222.268554688 401.260742188 222.689453125 401.260742188 225 c 0
 401.260742188 226.680664062 415.3359375 291.596679688 432.563476562 369.538085938 c 0
 449.790039062 447.478515625 464.916015625 517.857421875 466.176757812 525.840820312 c 0
 467.647460938 534.033203125 469.1171875 555.041992188 469.958007812 572.689453125 c 2
EndSplineSet
EndChar

StartChar: j
Encoding: 106 106 37
Width: 1000
VWidth: 0
Flags: H
LayerCount: 2
Fore
SplineSet
583.61328125 790.755859375 m 0
 598.109375 794.958007812 621.21875 793.067382812 635.083984375 786.764648438 c 0
 658.823242188 775.840820312 672.899414062 753.78125 672.899414062 727.521484375 c 0
 672.899414062 700.629882812 660.083984375 680.8828125 634.454101562 668.907226562 c 0
 622.899414062 663.4453125 618.487304688 662.60546875 603.78125 662.60546875 c 0
 588.655273438 662.60546875 585.083984375 663.4453125 572.899414062 669.328125 c 0
 564.706054688 673.529296875 555.8828125 679.83203125 551.470703125 684.874023438 c 0
 520.587890625 721.21875 537.60546875 777.521484375 583.61328125 790.755859375 c 0
522.268554688 580.041992188 m 2
 523.739257812 604.622070312 l 1
 580.041992188 604.622070312 l 1
 636.344726562 604.622070312 l 1
 637.815429688 594.748046875 l 2
 640.125976562 579.83203125 637.184570312 528.991210938 632.563476562 500.629882812 c 0
 625.840820312 460.924804688 574.159179688 238.655273438 565.125976562 211.5546875 c 0
 547.689453125 158.823242188 524.159179688 125 484.244140625 95.16796875 c 0
 458.403320312 75.8408203125 360.293945312 31.9326171875 356.932617188 38.2353515625 c 0
 354.412109375 42.2265625 325.419921875 126.05078125 326.05078125 126.680664062 c 0
 326.470703125 126.890625 335.713867188 131.72265625 346.638671875 137.184570312 c 0
 405.8828125 166.806640625 436.764648438 197.899414062 455.8828125 247.899414062 c 0
 459.6640625 257.563476562 502.310546875 445.377929688 511.344726562 492.2265625 c 0
 516.38671875 518.067382812 520.587890625 552.731445312 522.268554688 580.041992188 c 2
EndSplineSet
EndChar

StartChar: k
Encoding: 107 107 38
Width: 1000
VWidth: 0
Flags: H
LayerCount: 2
Fore
SplineSet
452.731445312 791.38671875 m 0
 467.857421875 792.2265625 484.874023438 793.067382812 490.966796875 793.27734375 c 2
 501.680664062 793.697265625 l 1
 503.151367188 771.21875 l 2
 506.512695312 723.109375 502.310546875 693.067382812 477.100585938 579.412109375 c 0
 472.689453125 559.244140625 469.1171875 542.436523438 469.538085938 542.016601562 c 0
 469.958007812 541.596679688 477.100585938 546.848632812 485.713867188 553.78125 c 0
 517.436523438 579.83203125 551.890625 598.109375 585.713867188 606.932617188 c 0
 605.8828125 612.184570312 640.545898438 612.60546875 657.983398438 607.983398438 c 0
 707.352539062 594.748046875 732.563476562 556.932617188 726.680664062 504.83203125 c 0
 722.268554688 464.706054688 705.461914062 438.655273438 654.622070312 392.436523438 c 0
 616.596679688 357.983398438 612.39453125 351.890625 612.39453125 333.61328125 c 0
 612.39453125 320.377929688 613.235351562 318.27734375 636.134765625 271.848632812 c 0
 648.94921875 245.587890625 659.6640625 223.529296875 659.6640625 223.109375 c 0
 659.6640625 222.689453125 631.932617188 222.268554688 597.899414062 222.268554688 c 2
 536.134765625 222.268554688 l 1
 525 248.94921875 l 2
 501.470703125 306.302734375 495.16796875 332.7734375 500 355.671875 c 0
 505.041992188 380.251953125 513.235351562 390.545898438 556.932617188 428.361328125 c 0
 585.293945312 452.94140625 594.538085938 463.235351562 600.840820312 477.100585938 c 0
 613.865234375 505.461914062 593.487304688 520.797851562 560.924804688 507.352539062 c 0
 542.016601562 499.580078125 523.529296875 485.713867188 498.94921875 460.924804688 c 0
 467.647460938 429.622070312 443.067382812 391.806640625 432.7734375 359.874023438 c 0
 431.302734375 355.251953125 429.412109375 351.05078125 428.571289062 350.419921875 c 0
 427.94140625 349.790039062 421.21875 320.797851562 413.865234375 285.924804688 c 2
 400.419921875 222.268554688 l 1
 341.176757812 222.268554688 l 1
 281.932617188 222.268554688 l 1
 284.874023438 235.50390625 l 2
 286.344726562 242.647460938 309.454101562 349.790039062 336.134765625 473.319335938 c 0
 382.983398438 689.916015625 389.286132812 723.109375 392.016601562 769.1171875 c 2
 393.27734375 789.49609375 l 1
 409.244140625 789.706054688 l 2
 418.27734375 789.916015625 437.815429688 790.755859375 452.731445312 791.38671875 c 0
EndSplineSet
EndChar

StartChar: l
Encoding: 108 108 39
Width: 1000
VWidth: 0
Flags: H
LayerCount: 2
Fore
SplineSet
541.806640625 790.966796875 m 2
 562.184570312 792.016601562 585.924804688 793.067382812 594.748046875 793.27734375 c 2
 610.713867188 793.697265625 l 1
 612.184570312 782.7734375 l 2
 614.286132812 763.865234375 613.655273438 734.033203125 610.293945312 708.193359375 c 0
 607.142578125 685.50390625 571.008789062 516.806640625 546.008789062 409.874023438 c 0
 531.512695312 347.689453125 528.571289062 325.419921875 530.041992188 285.293945312 c 0
 530.8828125 267.436523438 532.142578125 249.370117188 533.193359375 245.16796875 c 2
 535.083984375 237.39453125 l 1
 486.5546875 224.370117188 l 2
 459.874023438 217.016601562 436.974609375 210.713867188 435.713867188 210.293945312 c 0
 432.563476562 209.244140625 425.419921875 226.470703125 419.958007812 247.899414062 c 0
 414.286132812 270.587890625 412.184570312 323.739257812 415.966796875 353.361328125 c 0
 419.748046875 385.293945312 425.840820312 412.815429688 461.344726562 558.403320312 c 0
 496.428710938 701.890625 501.470703125 726.680664062 503.571289062 764.49609375 c 2
 504.83203125 789.075195312 l 1
 541.806640625 790.966796875 l 2
EndSplineSet
EndChar

StartChar: m
Encoding: 109 109 40
Width: 1000
VWidth: 0
Flags: H
LayerCount: 2
Fore
SplineSet
475.840820312 613.655273438 m 0
 494.538085938 616.176757812 516.596679688 613.025390625 532.352539062 605.461914062 c 0
 551.680664062 596.428710938 571.21875 571.638671875 576.680664062 549.370117188 c 2
 578.151367188 543.697265625 l 1
 593.487304688 558.193359375 l 2
 620.16796875 583.403320312 652.310546875 601.890625 683.823242188 610.083984375 c 0
 706.932617188 615.966796875 740.3359375 615.125976562 761.344726562 607.983398438 c 0
 788.025390625 598.94921875 803.361328125 585.924804688 814.075195312 563.4453125 c 0
 821.638671875 547.478515625 823.94921875 534.6640625 823.739257812 510.083984375 c 0
 823.739257812 480.461914062 817.857421875 452.310546875 800.209960938 393.487304688 c 0
 776.260742188 314.49609375 770.377929688 287.39453125 767.647460938 244.958007812 c 2
 766.176757812 222.268554688 l 1
 709.454101562 222.268554688 l 1
 652.731445312 222.268554688 l 1
 654.202148438 250.209960938 l 2
 656.932617188 302.521484375 662.184570312 329.412109375 681.932617188 392.016601562 c 0
 704.412109375 463.865234375 706.512695312 490.755859375 690.966796875 506.512695312 c 0
 685.293945312 512.184570312 683.823242188 512.60546875 672.689453125 511.764648438 c 0
 649.790039062 510.083984375 627.521484375 494.328125 607.7734375 465.545898438 c 0
 581.512695312 427.310546875 572.899414062 401.890625 552.310546875 299.580078125 c 2
 536.764648438 222.268554688 l 1
 477.310546875 222.268554688 l 2
 421.638671875 222.268554688 417.857421875 222.478515625 418.907226562 226.05078125 c 0
 419.328125 227.94140625 430.8828125 280.251953125 444.538085938 342.016601562 c 0
 474.159179688 477.731445312 475.629882812 490.755859375 462.815429688 506.092773438 c 0
 457.563476562 512.184570312 456.512695312 512.60546875 445.587890625 511.764648438 c 0
 439.075195312 511.344726562 429.202148438 508.823242188 423.739257812 506.092773438 c 0
 392.857421875 491.176757812 359.033203125 441.38671875 344.958007812 390.3359375 c 0
 341.176757812 376.890625 306.72265625 226.05078125 306.72265625 223.319335938 c 0
 306.72265625 222.689453125 280.251953125 222.268554688 247.899414062 222.268554688 c 0
 199.159179688 222.268554688 189.075195312 222.689453125 189.075195312 225.209960938 c 0
 189.075195312 226.890625 202.731445312 289.916015625 219.538085938 365.3359375 c 0
 255.8828125 529.622070312 256.302734375 531.932617188 257.7734375 572.689453125 c 2
 259.033203125 604.622070312 l 1
 310.924804688 604.622070312 l 1
 362.815429688 604.622070312 l 1
 364.286132812 588.4453125 l 2
 364.916015625 579.622070312 365.545898438 566.806640625 365.545898438 560.083984375 c 2
 365.545898438 547.478515625 l 1
 381.932617188 561.974609375 l 2
 404.83203125 582.352539062 413.025390625 588.4453125 430.8828125 598.109375 c 0
 445.797851562 606.092773438 462.60546875 611.974609375 475.840820312 613.655273438 c 0
EndSplineSet
EndChar

StartChar: n
Encoding: 110 110 41
Width: 1000
VWidth: 0
Flags: H
LayerCount: 2
Fore
SplineSet
580.041992188 610.713867188 m 0
 594.958007812 613.655273438 632.352539062 613.235351562 644.328125 610.083984375 c 0
 678.361328125 601.05078125 697.899414062 580.671875 708.61328125 543.697265625 c 0
 712.39453125 530.671875 713.235351562 522.689453125 713.025390625 496.428710938 c 0
 713.025390625 479.202148438 711.764648438 457.7734375 710.50390625 449.159179688 c 0
 708.403320312 436.974609375 668.487304688 250.840820312 662.815429688 227.100585938 c 2
 661.764648438 222.268554688 l 1
 602.94140625 222.268554688 l 2
 567.436523438 222.268554688 544.1171875 223.109375 544.1171875 224.159179688 c 0
 544.1171875 225.419921875 555.041992188 276.05078125 568.27734375 336.764648438 c 0
 581.72265625 397.689453125 593.487304688 453.78125 594.328125 461.5546875 c 0
 596.21875 476.890625 594.328125 494.328125 589.916015625 501.470703125 c 0
 585.293945312 508.823242188 574.370117188 512.815429688 562.184570312 511.344726562 c 0
 523.94921875 506.932617188 480.671875 460.083984375 461.134765625 402.310546875 c 0
 457.352539062 390.755859375 420.16796875 228.571289062 420.16796875 223.109375 c 0
 420.16796875 222.689453125 393.697265625 222.268554688 361.344726562 222.268554688 c 0
 312.184570312 222.268554688 302.521484375 222.689453125 302.521484375 225.209960938 c 0
 302.521484375 226.890625 315.755859375 288.4453125 331.72265625 362.39453125 c 0
 347.899414062 436.134765625 362.39453125 503.571289062 364.286132812 512.184570312 c 0
 368.067382812 531.302734375 371.848632812 568.697265625 371.848632812 589.49609375 c 2
 371.848632812 604.622070312 l 1
 423.109375 604.622070312 l 1
 474.370117188 604.622070312 l 1
 475.419921875 600 l 2
 476.05078125 597.268554688 477.310546875 585.50390625 478.151367188 573.739257812 c 2
 479.622070312 552.100585938 l 1
 492.016601562 563.655273438 l 2
 518.907226562 588.655273438 548.94921875 604.622070312 580.041992188 610.713867188 c 0
EndSplineSet
EndChar

StartChar: p
Encoding: 112 112 42
Width: 1000
VWidth: 0
Flags: H
LayerCount: 2
Fore
SplineSet
603.991210938 612.815429688 m 0
 621.638671875 615.3359375 627.100585938 615.3359375 643.907226562 613.025390625 c 0
 674.370117188 608.61328125 703.151367188 588.235351562 716.176757812 561.764648438 c 0
 727.100585938 539.286132812 731.092773438 519.748046875 731.092773438 486.974609375 c 0
 731.092773438 426.680664062 713.4453125 366.176757812 681.72265625 317.436523438 c 0
 668.27734375 296.848632812 639.49609375 267.016601562 620.797851562 254.412109375 c 0
 593.27734375 235.924804688 559.244140625 222.05859375 525.209960938 215.755859375 c 0
 505.671875 211.974609375 461.974609375 212.184570312 444.328125 215.966796875 c 0
 436.344726562 217.647460938 428.78125 219.1171875 427.731445312 219.1171875 c 0
 426.470703125 219.1171875 416.596679688 176.680664062 405.461914062 124.580078125 c 2
 385.083984375 30.0419921875 l 1
 326.05078125 29.412109375 l 2
 293.487304688 29.2021484375 266.806640625 29.412109375 266.806640625 30.0419921875 c 0
 266.806640625 30.4619140625 289.916015625 137.184570312 318.27734375 266.806640625 c 0
 346.428710938 396.638671875 371.008789062 511.344726562 372.899414062 521.638671875 c 0
 374.790039062 532.142578125 376.890625 555.041992188 377.521484375 572.689453125 c 2
 378.78125 604.622070312 l 1
 430.671875 604.622070312 l 1
 482.563476562 604.622070312 l 1
 483.823242188 590.545898438 l 2
 484.6640625 582.563476562 485.293945312 568.27734375 485.293945312 558.403320312 c 2
 485.293945312 540.545898438 l 1
 493.487304688 550.209960938 l 2
 520.587890625 581.512695312 565.966796875 607.352539062 603.991210938 612.815429688 c 0
595.797851562 507.563476562 m 0
 587.815429688 513.025390625 571.008789062 513.655273438 558.193359375 509.033203125 c 0
 536.764648438 501.05078125 504.202148438 470.797851562 487.60546875 443.067382812 c 0
 474.580078125 421.848632812 467.436523438 401.470703125 457.983398438 360.293945312 c 2
 449.580078125 324.159179688 l 1
 455.041992188 319.538085938 l 2
 463.235351562 312.184570312 481.512695312 307.7734375 498.319335938 308.823242188 c 0
 527.521484375 310.924804688 559.6640625 334.454101562 579.622070312 368.067382812 c 0
 597.268554688 397.478515625 610.293945312 446.21875 608.61328125 475.419921875 c 0
 607.563476562 495.16796875 605.251953125 501.05078125 595.797851562 507.563476562 c 0
EndSplineSet
EndChar

StartChar: q
Encoding: 113 113 43
Width: 1000
VWidth: 0
Flags: H
LayerCount: 2
Fore
SplineSet
522.05859375 613.865234375 m 0
 538.025390625 616.176757812 585.50390625 613.235351562 602.94140625 608.823242188 c 0
 635.50390625 600.629882812 676.05078125 578.78125 700.840820312 555.671875 c 2
 712.60546875 544.748046875 l 1
 657.563476562 290.545898438 l 2
 627.310546875 150.629882812 602.100585938 34.6640625 601.680664062 32.7734375 c 0
 600.629882812 29.2021484375 596.008789062 28.9912109375 541.806640625 28.9912109375 c 0
 506.512695312 28.9912109375 483.193359375 29.83203125 483.193359375 30.8828125 c 0
 483.193359375 36.5546875 520.16796875 211.134765625 527.100585938 238.4453125 c 2
 535.293945312 270.587890625 l 1
 522.05859375 258.823242188 l 2
 490.3359375 231.092773438 455.461914062 216.176757812 418.067382812 214.49609375 c 0
 380.251953125 212.60546875 359.033203125 219.748046875 337.39453125 241.596679688 c 0
 317.857421875 261.5546875 308.823242188 282.563476562 304.412109375 318.907226562 c 0
 298.94921875 364.075195312 312.815429688 432.142578125 337.184570312 480.8828125 c 0
 374.790039062 556.72265625 437.39453125 601.470703125 522.05859375 613.865234375 c 0
566.176757812 515.125976562 m 0
 543.27734375 521.848632812 528.361328125 520.587890625 507.142578125 510.083984375 c 0
 473.739257812 493.697265625 450 459.874023438 433.61328125 405.8828125 c 0
 428.78125 390.125976562 427.94140625 382.983398438 427.731445312 360.924804688 c 0
 427.521484375 331.512695312 429.202148438 326.680664062 441.806640625 318.697265625 c 0
 447.05859375 315.3359375 451.05078125 314.706054688 460.293945312 315.3359375 c 0
 490.966796875 317.857421875 526.470703125 347.478515625 551.470703125 391.596679688 c 0
 563.025390625 411.974609375 567.647460938 425.419921875 577.731445312 469.538085938 c 2
 585.713867188 504.622070312 l 1
 581.092773438 508.193359375 l 2
 578.78125 510.293945312 572.05859375 513.235351562 566.176757812 515.125976562 c 0
EndSplineSet
EndChar

StartChar: s
Encoding: 115 115 44
Width: 1000
VWidth: 0
Flags: H
LayerCount: 2
Fore
SplineSet
497.899414062 609.874023438 m 0
 516.596679688 613.655273438 565.125976562 613.655273438 584.6640625 610.083984375 c 0
 606.932617188 605.671875 650 591.806640625 657.352539062 586.344726562 c 0
 657.983398438 585.924804688 630.671875 503.991210938 629.202148438 502.310546875 c 0
 628.991210938 501.890625 619.538085938 505.461914062 608.193359375 510.083984375 c 0
 547.689453125 534.874023438 512.60546875 531.512695312 512.60546875 500.840820312 c 0
 512.60546875 483.823242188 521.428710938 472.478515625 559.6640625 439.916015625 c 0
 586.5546875 417.016601562 600.209960938 401.260742188 609.244140625 382.983398438 c 0
 643.697265625 313.025390625 607.563476562 239.706054688 528.361328125 218.907226562 c 0
 507.563476562 213.235351562 447.268554688 213.235351562 423.319335938 218.697265625 c 0
 389.706054688 226.260742188 336.764648438 246.638671875 338.655273438 251.470703125 c 0
 338.865234375 252.521484375 345.797851562 272.05859375 353.78125 295.16796875 c 2
 368.27734375 337.184570312 l 1
 391.806640625 326.05078125 l 2
 450 298.319335938 490.125976562 293.067382812 505.251953125 310.924804688 c 0
 512.39453125 319.328125 513.655273438 325.629882812 510.293945312 337.39453125 c 0
 507.352539062 348.109375 500.419921875 355.671875 453.78125 398.739257812 c 0
 428.151367188 422.478515625 414.49609375 440.755859375 407.142578125 461.344726562 c 0
 401.05078125 478.571289062 399.580078125 512.815429688 404.412109375 531.092773438 c 0
 414.916015625 572.05859375 447.689453125 599.580078125 497.899414062 609.874023438 c 0
EndSplineSet
EndChar

StartChar: t
Encoding: 116 116 45
Width: 1000
VWidth: 0
Flags: H
LayerCount: 2
Fore
SplineSet
537.815429688 730.8828125 m 2
 581.932617188 737.60546875 600 739.706054688 600.419921875 738.025390625 c 0
 600.840820312 736.5546875 593.907226562 706.932617188 585.083984375 672.268554688 c 0
 576.470703125 637.39453125 569.328125 607.983398438 569.328125 606.72265625 c 0
 569.328125 605.461914062 584.454101562 604.622070312 612.39453125 604.622070312 c 0
 636.134765625 604.622070312 655.461914062 603.991210938 655.461914062 603.151367188 c 0
 655.251953125 602.100585938 651.260742188 582.983398438 646.428710938 560.50390625 c 2
 637.60546875 519.538085938 l 1
 592.436523438 518.907226562 l 1
 547.268554688 518.487304688 l 1
 526.260742188 432.983398438 l 2
 503.361328125 339.49609375 501.890625 329.202148438 510.293945312 320.16796875 c 0
 522.689453125 307.142578125 540.545898438 308.193359375 573.319335938 324.159179688 c 0
 589.706054688 332.142578125 592.436523438 332.983398438 593.27734375 329.83203125 c 0
 598.109375 313.865234375 615.3359375 250.840820312 614.916015625 250.419921875 c 0
 614.706054688 250.209960938 608.823242188 247.268554688 601.890625 243.697265625 c 0
 554.83203125 220.16796875 504.622070312 209.874023438 464.286132812 215.755859375 c 0
 411.5546875 223.529296875 384.454101562 254.622070312 384.454101562 307.142578125 c 0
 384.454101562 332.352539062 387.184570312 347.268554688 409.244140625 439.706054688 c 2
 427.731445312 517.436523438 l 1
 400.629882812 518.067382812 l 2
 373.739257812 518.697265625 373.529296875 518.697265625 374.580078125 523.319335938 c 0
 375.209960938 525.840820312 379.202148438 545.16796875 383.61328125 566.176757812 c 2
 391.596679688 604.412109375 l 1
 419.958007812 605.041992188 l 1
 448.319335938 605.671875 l 1
 462.184570312 663.4453125 l 1
 476.05078125 721.21875 l 1
 537.815429688 730.8828125 l 2
EndSplineSet
EndChar

StartChar: u
Encoding: 117 117 46
Width: 1000
VWidth: 0
Flags: H
LayerCount: 2
Fore
SplineSet
365.545898438 589.49609375 m 2
 365.545898438 604.622070312 l 1
 422.05859375 604.622070312 l 1
 478.361328125 604.622070312 l 1
 479.83203125 591.596679688 l 2
 481.092773438 577.94140625 478.571289062 540.3359375 474.580078125 516.38671875 c 0
 470.797851562 493.27734375 465.125976562 473.109375 448.529296875 424.370117188 c 0
 429.202148438 366.806640625 425.629882812 346.21875 432.352539062 331.092773438 c 0
 439.916015625 313.865234375 454.412109375 310.50390625 476.05078125 321.21875 c 0
 491.38671875 328.991210938 515.3359375 352.731445312 530.461914062 375.419921875 c 0
 557.983398438 417.016601562 569.748046875 449.370117188 589.916015625 540.125976562 c 2
 604.202148438 603.571289062 l 1
 663.655273438 604.202148438 l 1
 723.109375 604.622070312 l 1
 722.05859375 600 l 2
 717.016601562 579.83203125 665.545898438 339.075195312 663.025390625 324.159179688 c 0
 658.823242188 298.94921875 655.461914062 265.3359375 655.461914062 246.638671875 c 0
 655.461914062 238.4453125 654.83203125 229.622070312 654.202148438 227.100585938 c 2
 652.94140625 222.268554688 l 1
 600.840820312 222.268554688 l 1
 548.94921875 222.268554688 l 1
 547.478515625 229.202148438 l 2
 546.638671875 232.7734375 545.587890625 243.067382812 544.748046875 251.680664062 c 0
 544.1171875 260.293945312 542.857421875 268.487304688 542.2265625 269.958007812 c 0
 541.38671875 271.638671875 535.713867188 268.27734375 525.629882812 260.293945312 c 0
 492.436523438 233.823242188 455.461914062 218.067382812 415.755859375 213.4453125 c 0
 356.932617188 206.932617188 318.487304688 231.512695312 307.563476562 282.7734375 c 0
 300 318.697265625 306.302734375 354.202148438 336.134765625 446.21875 c 0
 357.7734375 512.60546875 365.3359375 549.159179688 365.545898438 589.49609375 c 2
EndSplineSet
EndChar

StartChar: v
Encoding: 118 118 47
Width: 1000
VWidth: 0
Flags: H
LayerCount: 2
Fore
SplineSet
628.78125 605.8828125 m 0
 659.033203125 611.974609375 684.874023438 616.806640625 686.134765625 617.016601562 c 0
 687.39453125 617.2265625 690.545898438 608.193359375 693.067382812 597.05859375 c 0
 712.184570312 513.655273438 706.092773438 445.587890625 673.319335938 376.470703125 c 0
 642.857421875 311.974609375 597.899414062 263.865234375 542.016601562 235.924804688 c 0
 509.244140625 219.538085938 481.302734375 213.025390625 444.328125 213.025390625 c 0
 367.016601562 213.025390625 319.1171875 260.713867188 324.159179688 332.7734375 c 0
 324.790039062 342.016601562 330.671875 374.159179688 337.184570312 404.202148438 c 0
 362.39453125 520.16796875 363.4453125 526.05078125 365.966796875 566.38671875 c 2
 368.487304688 604.622070312 l 1
 424.159179688 604.202148438 l 1
 480.041992188 603.571289062 l 1
 480.041992188 558.403320312 l 2
 479.83203125 506.72265625 480.041992188 508.193359375 457.563476562 412.39453125 c 0
 448.529296875 373.739257812 442.857421875 344.538085938 442.647460938 336.974609375 c 0
 442.647460938 325.629882812 443.067382812 323.94921875 449.370117188 318.487304688 c 0
 463.235351562 306.092773438 484.6640625 312.39453125 510.083984375 336.5546875 c 0
 540.755859375 365.755859375 567.647460938 414.916015625 577.94140625 460.713867188 c 0
 584.6640625 491.38671875 583.823242188 536.5546875 575.629882812 573.109375 c 0
 573.319335938 583.823242188 571.848632812 593.067382812 572.478515625 593.907226562 c 0
 573.319335938 594.538085938 598.529296875 600 628.78125 605.8828125 c 0
EndSplineSet
EndChar

StartChar: w
Encoding: 119 119 48
Width: 1000
VWidth: 0
Flags: H
LayerCount: 2
Fore
SplineSet
727.310546875 605.041992188 m 2
 755.251953125 610.50390625 780.8828125 614.916015625 783.823242188 614.916015625 c 0
 788.865234375 615.125976562 789.49609375 614.286132812 791.806640625 601.05078125 c 0
 798.94921875 559.874023438 800.419921875 503.151367188 795.16796875 467.016601562 c 0
 781.512695312 373.109375 737.39453125 297.268554688 669.748046875 251.05078125 c 0
 596.008789062 200.840820312 499.159179688 200 458.823242188 249.159179688 c 2
 450 259.6640625 l 1
 435.713867188 249.370117188 l 2
 384.6640625 212.815429688 322.689453125 202.310546875 278.78125 223.319335938 c 0
 243.27734375 239.916015625 226.680664062 267.647460938 226.680664062 310.50390625 c 0
 226.680664062 333.61328125 226.260742188 330.8828125 245.587890625 418.697265625 c 0
 266.596679688 513.655273438 268.697265625 527.310546875 272.268554688 581.092773438 c 0
 273.529296875 602.521484375 273.529296875 602.521484375 278.991210938 602.521484375 c 0
 286.344726562 602.521484375 362.184570312 606.512695312 373.319335938 607.563476562 c 2
 382.142578125 608.193359375 l 1
 383.61328125 592.2265625 l 2
 385.50390625 570.797851562 381.302734375 517.647460938 375 486.134765625 c 0
 372.268554688 472.268554688 363.865234375 435.713867188 356.302734375 405.041992188 c 0
 348.94921875 374.370117188 342.2265625 344.958007812 341.38671875 339.49609375 c 0
 336.134765625 304.622070312 369.748046875 297.478515625 401.470703125 326.890625 c 0
 418.067382812 342.016601562 430.251953125 359.454101562 442.647460938 385.083984375 c 0
 452.310546875 405.041992188 453.78125 410.713867188 473.739257812 504.83203125 c 2
 494.958007812 603.571289062 l 1
 552.310546875 604.202148438 l 1
 609.6640625 604.622070312 l 1
 608.403320312 599.580078125 l 2
 603.571289062 580.251953125 553.78125 353.151367188 552.100585938 342.647460938 c 0
 549.370117188 324.580078125 552.310546875 315.3359375 562.60546875 311.134765625 c 0
 567.436523438 309.033203125 573.109375 308.403320312 578.361328125 309.244140625 c 0
 621.21875 316.176757812 667.647460938 388.865234375 679.622070312 468.067382812 c 0
 684.454101562 499.580078125 683.61328125 549.370117188 677.521484375 586.974609375 c 2
 676.05078125 595.377929688 l 1
 727.310546875 605.041992188 l 2
EndSplineSet
EndChar

StartChar: x
Encoding: 120 120 49
Width: 1000
VWidth: 0
Flags: H
LayerCount: 2
Fore
SplineSet
355.251953125 603.151367188 m 0
 355.041992188 603.991210938 386.5546875 604.412109375 424.790039062 604.202148438 c 2
 494.748046875 603.571289062 l 1
 504.412109375 572.05859375 l 2
 509.874023438 554.83203125 517.436523438 530.671875 521.008789062 518.487304688 c 2
 527.94140625 496.428710938 l 1
 540.3359375 510.083984375 l 2
 562.39453125 534.244140625 578.151367188 556.72265625 589.706054688 581.092773438 c 2
 600.840820312 604.622070312 l 1
 664.916015625 604.622070312 l 1
 728.991210938 604.622070312 l 1
 717.647460938 586.344726562 l 1
 678.361328125 521.428710938 648.529296875 482.7734375 597.268554688 430.251953125 c 2
 573.739257812 406.092773438 l 1
 611.5546875 321.008789062 l 2
 632.352539062 274.159179688 650.840820312 232.7734375 652.310546875 229.202148438 c 2
 655.251953125 222.268554688 l 1
 585.50390625 222.268554688 l 1
 515.755859375 222.268554688 l 1
 500.209960938 274.370117188 l 2
 491.596679688 302.94140625 483.823242188 327.100585938 483.193359375 327.94140625 c 0
 481.302734375 330.251953125 437.60546875 283.823242188 421.848632812 262.815429688 c 0
 415.125976562 253.78125 406.72265625 240.966796875 403.361328125 234.454101562 c 2
 396.848632812 222.268554688 l 1
 332.563476562 222.268554688 l 2
 277.100585938 222.268554688 268.697265625 222.689453125 269.538085938 225.419921875 c 0
 271.848632812 231.302734375 300 271.848632812 316.176757812 292.647460938 c 0
 337.184570312 319.748046875 356.302734375 340.966796875 399.370117188 385.083984375 c 2
 434.244140625 420.797851562 l 1
 394.748046875 511.134765625 l 2
 373.109375 560.924804688 355.251953125 602.100585938 355.251953125 603.151367188 c 0
EndSplineSet
EndChar

StartChar: y
Encoding: 121 121 50
Width: 1000
VWidth: 0
Flags: H
LayerCount: 2
Fore
SplineSet
352.94140625 601.05078125 m 0
 352.94140625 604.412109375 357.352539062 604.622070312 415.755859375 604.622070312 c 2
 478.78125 604.622070312 l 1
 479.83203125 595.797851562 l 2
 480.461914062 590.755859375 484.454101562 536.764648438 488.4453125 475.419921875 c 0
 492.647460938 414.286132812 496.428710938 363.865234375 496.638671875 363.4453125 c 0
 498.94921875 361.344726562 537.184570312 427.521484375 551.680664062 458.823242188 c 0
 573.529296875 505.8828125 582.7734375 531.932617188 599.790039062 592.647460938 c 2
 603.151367188 604.622070312 l 1
 661.764648438 604.622070312 l 2
 695.797851562 604.622070312 720.587890625 603.78125 720.587890625 602.731445312 c 0
 720.587890625 601.680664062 714.49609375 582.563476562 707.142578125 560.083984375 c 0
 663.655273438 427.94140625 603.991210938 323.739257812 507.563476562 211.764648438 c 0
 472.268554688 170.797851562 393.27734375 94.748046875 339.916015625 50.419921875 c 0
 336.764648438 47.8994140625 333.61328125 51.890625 306.932617188 91.806640625 c 0
 290.545898438 116.176757812 277.310546875 136.764648438 277.310546875 137.60546875 c 0
 277.310546875 138.655273438 285.083984375 144.958007812 294.748046875 151.890625 c 0
 325 173.739257812 355.041992188 199.370117188 386.764648438 230.671875 c 2
 417.647460938 261.134765625 l 1
 385.293945312 429.202148438 l 2
 367.647460938 521.638671875 353.151367188 598.94921875 352.94140625 601.05078125 c 0
EndSplineSet
EndChar

StartChar: z
Encoding: 122 122 51
Width: 1000
VWidth: 0
Flags: H
LayerCount: 2
Fore
SplineSet
392.647460938 604.202148438 m 0
 392.857421875 604.412109375 456.092773438 604.622070312 533.403320312 604.622070312 c 2
 673.94921875 604.622070312 l 1
 675.209960938 598.94921875 l 2
 675.840820312 595.587890625 677.310546875 577.731445312 678.78125 559.244140625 c 2
 681.302734375 525.209960938 l 1
 574.159179688 413.235351562 l 1
 467.016601562 301.05078125 l 1
 489.286132812 293.487304688 l 2
 501.470703125 289.286132812 521.428710938 281.932617188 533.61328125 276.890625 c 0
 572.899414062 261.134765625 605.251953125 255.461914062 644.538085938 257.983398438 c 0
 660.713867188 259.033203125 661.764648438 258.823242188 661.764648438 254.83203125 c 0
 661.764648438 245.797851562 655.461914062 164.706054688 654.622070312 164.075195312 c 0
 654.202148438 163.655273438 642.2265625 162.184570312 627.94140625 160.924804688 c 0
 581.512695312 156.932617188 537.39453125 163.4453125 489.075195312 182.142578125 c 0
 476.470703125 186.764648438 456.72265625 194.538085938 444.748046875 198.94921875 c 0
 405.8828125 213.865234375 362.39453125 224.370117188 338.4453125 224.370117188 c 0
 333.193359375 224.370117188 327.731445312 225.209960938 326.470703125 226.05078125 c 0
 325.209960938 226.890625 321.848632812 242.436523438 319.328125 260.713867188 c 2
 314.286132812 293.907226562 l 1
 425.419921875 405.041992188 l 1
 536.764648438 516.38671875 l 1
 457.7734375 516.806640625 l 1
 378.991210938 517.436523438 l 1
 385.713867188 560.50390625 l 2
 389.49609375 584.244140625 392.647460938 603.78125 392.647460938 604.202148438 c 0
EndSplineSet
EndChar

StartChar: zero
Encoding: 48 48 52
Width: 1000
VWidth: 0
Flags: H
LayerCount: 2
Fore
SplineSet
539.706054688 751.470703125 m 0
 637.815429688 761.974609375 702.94140625 722.689453125 723.94921875 640.755859375 c 0
 738.4453125 584.6640625 729.622070312 494.328125 701.470703125 411.344726562 c 0
 666.176757812 306.72265625 605.041992188 240.755859375 524.159179688 220.16796875 c 0
 476.680664062 207.983398438 421.638671875 210.713867188 384.874023438 226.890625 c 0
 304.412109375 262.39453125 280.671875 364.916015625 318.27734375 514.286132812 c 0
 354.202148438 657.563476562 431.092773438 739.916015625 539.706054688 751.470703125 c 0
572.05859375 656.092773438 m 0
 567.647460938 656.72265625 562.184570312 657.7734375 559.874023438 657.983398438 c 0
 553.571289062 659.033203125 537.815429688 656.092773438 528.571289062 652.100585938 c 0
 486.344726562 634.454101562 451.260742188 569.1171875 431.932617188 471.21875 c 0
 424.159179688 431.512695312 422.05859375 413.4453125 422.05859375 385.083984375 c 0
 422.268554688 336.134765625 434.874023438 312.815429688 463.655273438 308.403320312 c 0
 502.731445312 302.521484375 538.655273438 330.461914062 565.3359375 387.184570312 c 0
 582.563476562 423.739257812 601.05078125 493.067382812 607.352539062 544.1171875 c 0
 610.924804688 573.529296875 609.033203125 610.924804688 603.151367188 626.05078125 c 0
 597.478515625 640.966796875 583.823242188 654.202148438 572.05859375 656.092773438 c 0
EndSplineSet
EndChar

StartChar: one
Encoding: 49 49 53
Width: 1000
VWidth: 0
Flags: H
LayerCount: 2
Fore
SplineSet
468.487304688 697.899414062 m 2
 561.974609375 742.857421875 l 1
 613.025390625 743.067382812 l 1
 663.865234375 743.27734375 l 1
 662.60546875 738.235351562 l 2
 661.974609375 735.50390625 636.5546875 618.487304688 606.302734375 478.361328125 c 2
 551.05078125 223.319335938 l 1
 490.545898438 222.689453125 l 1
 430.251953125 222.268554688 l 1
 431.512695312 228.991210938 l 2
 432.142578125 232.7734375 451.05078125 319.958007812 473.529296875 422.899414062 c 0
 496.008789062 525.629882812 514.075195312 610.083984375 513.865234375 610.293945312 c 0
 513.4453125 610.713867188 475.419921875 596.428710938 416.806640625 574.159179688 c 2
 403.78125 569.328125 l 1
 387.815429688 610.50390625 l 2
 378.991210938 633.193359375 372.478515625 652.100585938 373.319335938 652.521484375 c 0
 374.370117188 652.731445312 417.016601562 673.319335938 468.487304688 697.899414062 c 2
EndSplineSet
EndChar

StartChar: two
Encoding: 50 50 54
Width: 1000
VWidth: 0
Flags: H
LayerCount: 2
Fore
SplineSet
522.05859375 750.209960938 m 0
 579.622070312 753.991210938 631.932617188 737.60546875 662.815429688 706.512695312 c 0
 684.454101562 684.874023438 694.328125 662.60546875 696.638671875 629.83203125 c 0
 699.790039062 588.235351562 684.874023438 542.016601562 655.251953125 501.05078125 c 0
 625.629882812 460.083984375 591.806640625 426.680664062 510.083984375 357.142578125 c 2
 463.655273438 317.857421875 l 1
 558.193359375 316.806640625 l 1
 652.521484375 315.755859375 l 1
 642.857421875 269.538085938 l 1
 632.983398438 223.319335938 l 1
 468.067382812 222.689453125 l 1
 303.151367188 222.268554688 l 1
 301.680664062 250 l 2
 300.840820312 265.3359375 299.790039062 284.6640625 298.94921875 292.857421875 c 2
 297.899414062 307.563476562 l 1
 365.755859375 366.176757812 l 2
 480.671875 465.3359375 518.27734375 501.260742188 545.377929688 537.815429688 c 0
 566.38671875 565.966796875 576.260742188 596.008789062 571.638671875 617.436523438 c 0
 563.025390625 656.932617188 514.49609375 665.3359375 434.874023438 640.966796875 c 0
 421.638671875 636.764648438 409.244140625 633.193359375 407.352539062 632.563476562 c 0
 404.622070312 631.72265625 402.100585938 639.075195312 393.27734375 674.370117188 c 0
 387.39453125 697.899414062 383.193359375 717.647460938 384.033203125 718.487304688 c 0
 386.974609375 721.21875 424.159179688 733.193359375 447.689453125 739.075195312 c 0
 470.587890625 744.538085938 497.899414062 748.739257812 522.05859375 750.209960938 c 0
EndSplineSet
EndChar

StartChar: three
Encoding: 51 51 55
Width: 1000
VWidth: 0
Flags: H
LayerCount: 2
Fore
SplineSet
506.512695312 751.470703125 m 0
 576.260742188 758.61328125 632.563476562 745.16796875 664.075195312 713.655273438 c 0
 684.244140625 693.487304688 693.27734375 669.538085938 693.27734375 636.134765625 c 0
 693.27734375 600 679.622070312 565.545898438 653.991210938 537.60546875 c 0
 642.016601562 524.370117188 619.328125 505.461914062 613.235351562 503.361328125 c 0
 611.764648438 502.94140625 618.697265625 494.538085938 628.571289062 484.6640625 c 0
 656.092773438 457.563476562 664.916015625 435.083984375 664.706054688 393.487304688 c 0
 664.075195312 294.958007812 585.50390625 224.790039062 463.235351562 213.865234375 c 0
 434.244140625 211.134765625 394.1171875 213.4453125 366.596679688 219.1171875 c 0
 342.436523438 224.159179688 315.125976562 233.193359375 315.125976562 236.134765625 c 0
 315.125976562 237.60546875 322.268554688 257.563476562 330.8828125 280.461914062 c 0
 339.706054688 303.361328125 347.05859375 323.109375 347.689453125 324.580078125 c 0
 348.319335938 326.470703125 352.731445312 325.629882812 363.655273438 322.05859375 c 0
 387.815429688 313.865234375 407.7734375 310.50390625 433.403320312 310.50390625 c 0
 484.6640625 310.50390625 521.428710938 328.361328125 537.39453125 360.713867188 c 0
 542.2265625 370.797851562 543.067382812 375 542.857421875 389.286132812 c 0
 542.647460938 408.61328125 539.49609375 417.647460938 528.571289062 429.622070312 c 0
 513.4453125 446.428710938 482.563476562 454.622070312 442.016601562 452.94140625 c 2
 419.538085938 451.890625 l 1
 420.797851562 478.361328125 l 2
 421.638671875 492.857421875 422.268554688 509.6640625 422.268554688 515.3359375 c 0
 422.268554688 521.21875 423.109375 527.100585938 423.94921875 528.361328125 c 0
 425 530.041992188 435.50390625 531.932617188 452.94140625 533.193359375 c 0
 486.974609375 535.924804688 508.823242188 541.38671875 530.8828125 552.100585938 c 0
 562.184570312 567.436523438 576.890625 587.39453125 576.470703125 614.075195312 c 0
 576.470703125 629.83203125 573.319335938 638.025390625 564.706054688 645.797851562 c 0
 554.412109375 655.251953125 546.008789062 657.983398438 523.739257812 658.823242188 c 0
 501.680664062 659.6640625 472.689453125 655.251953125 441.38671875 646.428710938 c 0
 433.823242188 644.328125 427.731445312 642.647460938 427.521484375 643.067382812 c 0
 427.310546875 643.27734375 423.319335938 660.924804688 418.27734375 682.352539062 c 0
 413.4453125 703.78125 408.823242188 722.899414062 408.403320312 724.790039062 c 0
 407.563476562 727.731445312 411.134765625 729.622070312 427.100585938 734.6640625 c 0
 450.629882812 742.2265625 482.142578125 748.739257812 506.512695312 751.470703125 c 0
EndSplineSet
EndChar

StartChar: four
Encoding: 52 52 56
Width: 1000
VWidth: 0
Flags: H
LayerCount: 2
Fore
SplineSet
478.151367188 740.755859375 m 0
 478.571289062 742.647460938 492.436523438 743.27734375 537.815429688 743.27734375 c 0
 594.538085938 743.27734375 596.638671875 743.067382812 596.638671875 739.286132812 c 0
 596.638671875 731.932617188 584.244140625 686.974609375 576.470703125 666.176757812 c 0
 552.521484375 601.680664062 508.823242188 530.8828125 442.857421875 449.790039062 c 0
 436.134765625 441.596679688 430.671875 434.244140625 430.671875 433.61328125 c 0
 430.671875 432.7734375 453.991210938 432.563476562 482.352539062 432.7734375 c 2
 534.244140625 433.403320312 l 1
 558.403320312 508.61328125 l 1
 582.7734375 583.61328125 l 1
 631.512695312 583.61328125 l 2
 676.890625 583.61328125 680.251953125 583.403320312 679.412109375 580.041992188 c 0
 678.991210938 577.94140625 671.848632812 545.587890625 663.865234375 507.983398438 c 0
 655.671875 470.377929688 648.529296875 438.025390625 647.899414062 436.134765625 c 0
 646.848632812 432.563476562 649.159179688 432.352539062 677.310546875 432.352539062 c 0
 694.748046875 432.352539062 707.983398438 431.512695312 707.983398438 430.461914062 c 0
 707.983398438 429.412109375 703.78125 408.823242188 698.529296875 384.6640625 c 0
 693.27734375 360.713867188 689.075195312 340.3359375 689.075195312 339.49609375 c 0
 689.075195312 338.4453125 675.209960938 337.815429688 657.983398438 337.815429688 c 2
 627.100585938 337.815429688 l 1
 614.706054688 280.041992188 l 1
 602.100585938 222.268554688 l 1
 542.647460938 222.268554688 l 2
 509.874023438 222.268554688 483.193359375 222.689453125 483.193359375 223.319335938 c 0
 483.193359375 223.739257812 488.865234375 249.370117188 495.797851562 280.251953125 c 0
 502.731445312 311.134765625 508.403320312 336.5546875 508.403320312 336.974609375 c 0
 508.403320312 337.39453125 461.764648438 337.815429688 404.622070312 337.815429688 c 2
 300.840820312 337.815429688 l 1
 299.790039062 348.94921875 l 2
 298.94921875 354.83203125 297.478515625 373.739257812 296.008789062 390.755859375 c 2
 293.697265625 421.428710938 l 1
 313.4453125 447.478515625 l 2
 341.596679688 484.033203125 375.840820312 531.72265625 393.907226562 559.244140625 c 0
 434.454101562 621.21875 454.622070312 664.49609375 478.151367188 740.755859375 c 0
EndSplineSet
EndChar

StartChar: five
Encoding: 53 53 57
Width: 1000
VWidth: 0
Flags: H
LayerCount: 2
Fore
SplineSet
418.27734375 735.50390625 m 2
 420.377929688 743.27734375 l 1
 561.974609375 743.27734375 l 2
 639.916015625 743.27734375 703.78125 742.647460938 703.78125 741.806640625 c 0
 703.78125 740.966796875 699.370117188 720.16796875 693.907226562 695.587890625 c 2
 684.244140625 650.840820312 l 1
 593.067382812 650.840820312 l 2
 543.067382812 650.840820312 502.100585938 650.209960938 502.100585938 649.370117188 c 0
 502.100585938 648.319335938 497.268554688 627.94140625 491.596679688 603.78125 c 0
 485.713867188 579.622070312 481.092773438 559.454101562 481.092773438 559.033203125 c 0
 481.092773438 558.61328125 487.39453125 558.403320312 495.377929688 558.403320312 c 0
 512.184570312 558.403320312 544.958007812 553.571289062 560.924804688 548.739257812 c 0
 578.571289062 543.697265625 602.94140625 530.041992188 615.966796875 518.487304688 c 0
 647.478515625 490.3359375 661.5546875 447.689453125 655.671875 397.689453125 c 0
 644.538085938 300.840820312 586.764648438 239.916015625 486.344726562 218.907226562 c 0
 470.797851562 215.545898438 458.403320312 214.916015625 418.067382812 214.916015625 c 0
 365.125976562 214.916015625 344.1171875 217.647460938 306.72265625 229.202148438 c 0
 294.1171875 233.193359375 291.176757812 234.874023438 291.596679688 237.815429688 c 0
 292.016601562 239.916015625 298.94921875 260.924804688 307.142578125 284.6640625 c 0
 319.538085938 320.16796875 322.478515625 327.310546875 325.419921875 326.260742188 c 0
 358.61328125 312.60546875 427.100585938 305.461914062 455.8828125 312.39453125 c 0
 496.21875 322.268554688 520.587890625 348.319335938 528.571289062 390.3359375 c 0
 536.134765625 430.041992188 521.848632812 454.83203125 484.454101562 466.596679688 c 0
 471.008789062 470.797851562 465.545898438 471.21875 427.521484375 471.008789062 c 0
 401.470703125 470.797851562 378.991210938 469.538085938 368.27734375 467.647460938 c 0
 356.512695312 465.545898438 350.840820312 465.3359375 350.840820312 466.806640625 c 0
 350.840820312 468.487304688 406.932617188 692.016601562 418.27734375 735.50390625 c 2
EndSplineSet
EndChar

StartChar: six
Encoding: 54 54 58
Width: 1000
VWidth: 0
Flags: H
LayerCount: 2
Fore
SplineSet
547.268554688 748.529296875 m 0
 571.848632812 752.521484375 623.529296875 752.310546875 647.268554688 748.319335938 c 0
 672.689453125 743.907226562 713.655273438 731.092773438 720.16796875 725.209960938 c 0
 720.587890625 725 714.286132812 707.352539062 705.8828125 686.134765625 c 0
 697.478515625 664.916015625 689.916015625 645.587890625 689.075195312 643.067382812 c 2
 687.184570312 638.655273438 l 1
 669.328125 644.748046875 l 2
 606.72265625 666.38671875 539.706054688 659.454101562 503.571289062 627.731445312 c 0
 484.454101562 610.713867188 467.2265625 579.202148438 456.932617188 542.016601562 c 0
 454.83203125 534.874023438 453.78125 528.361328125 454.412109375 527.731445312 c 0
 454.83203125 527.100585938 461.134765625 528.991210938 468.067382812 531.932617188 c 0
 495.587890625 543.487304688 513.235351562 546.848632812 547.268554688 546.848632812 c 0
 582.7734375 546.638671875 595.587890625 544.1171875 620.797851562 531.512695312 c 0
 650.629882812 516.806640625 674.370117188 484.874023438 681.72265625 450.209960938 c 0
 685.713867188 431.302734375 685.713867188 397.899414062 681.72265625 375.419921875 c 0
 667.647460938 294.538085938 614.916015625 238.025390625 535.713867188 218.697265625 c 0
 523.529296875 215.755859375 511.5546875 214.916015625 482.142578125 214.916015625 c 0
 439.286132812 214.916015625 424.159179688 218.067382812 394.958007812 232.352539062 c 0
 370.797851562 244.328125 347.899414062 267.857421875 335.50390625 293.907226562 c 0
 321.21875 323.739257812 317.016601562 342.647460938 315.755859375 385.083984375 c 0
 314.706054688 414.916015625 315.3359375 426.05078125 319.1171875 452.310546875 c 0
 332.563476562 545.16796875 356.302734375 610.50390625 395.16796875 661.5546875 c 0
 430.671875 708.403320312 483.403320312 738.655273438 547.268554688 748.529296875 c 0
541.38671875 452.521484375 m 0
 520.587890625 462.184570312 485.50390625 458.193359375 451.05078125 442.436523438 c 0
 440.125976562 437.39453125 436.5546875 434.6640625 435.50390625 430.461914062 c 0
 434.6640625 427.521484375 434.033203125 410.924804688 434.033203125 393.487304688 c 0
 433.823242188 366.176757812 434.454101562 359.874023438 438.655273438 346.428710938 c 0
 446.848632812 320.587890625 465.125976562 306.302734375 490.125976562 306.302734375 c 0
 499.790039062 306.302734375 517.857421875 311.974609375 527.310546875 317.857421875 c 0
 548.109375 330.8828125 564.075195312 362.39453125 566.596679688 394.958007812 c 0
 568.907226562 424.159179688 560.50390625 443.487304688 541.38671875 452.521484375 c 0
EndSplineSet
EndChar

StartChar: seven
Encoding: 55 55 59
Width: 1000
VWidth: 0
Flags: H
LayerCount: 2
Fore
SplineSet
377.100585938 740.755859375 m 0
 377.731445312 742.647460938 411.134765625 743.27734375 534.6640625 743.27734375 c 0
 688.4453125 743.27734375 691.176757812 743.27734375 691.176757812 739.286132812 c 0
 691.176757812 736.974609375 692.647460938 718.27734375 694.538085938 697.899414062 c 2
 697.689453125 660.713867188 l 1
 677.94140625 627.94140625 l 2
 667.016601562 609.874023438 636.344726562 558.823242188 609.454101562 514.49609375 c 0
 528.571289062 380.251953125 507.983398438 332.352539062 496.008789062 248.529296875 c 2
 492.436523438 223.319335938 l 1
 432.142578125 222.689453125 l 1
 372.05859375 222.268554688 l 1
 373.109375 233.193359375 l 2
 378.151367188 281.72265625 389.49609375 330.461914062 404.83203125 369.328125 c 0
 422.899414062 415.125976562 438.4453125 442.647460938 516.596679688 567.857421875 c 2
 564.916015625 645.587890625 l 1
 461.134765625 646.21875 l 2
 398.94921875 646.428710938 357.142578125 647.478515625 357.142578125 648.529296875 c 0
 357.142578125 650.840820312 375.840820312 736.764648438 377.100585938 740.755859375 c 0
EndSplineSet
EndChar

StartChar: eight
Encoding: 56 56 60
Width: 1000
VWidth: 0
Flags: H
LayerCount: 2
Fore
SplineSet
519.328125 751.680664062 m 0
 540.125976562 754.202148438 579.412109375 752.731445312 599.580078125 748.319335938 c 0
 663.235351562 735.083984375 703.151367188 696.848632812 709.874023438 642.2265625 c 0
 716.596679688 589.706054688 690.755859375 545.16796875 631.302734375 506.302734375 c 0
 619.748046875 498.739257812 609.874023438 492.2265625 609.454101562 491.806640625 c 0
 608.823242188 491.38671875 615.125976562 484.874023438 623.529296875 477.310546875 c 0
 641.38671875 461.134765625 657.352539062 437.815429688 663.655273438 419.538085938 c 0
 676.680664062 380.671875 672.689453125 330.461914062 653.571289062 297.268554688 c 0
 625.840820312 248.94921875 571.848632812 220.16796875 497.268554688 213.4453125 c 0
 455.461914062 209.6640625 414.916015625 215.125976562 380.8828125 229.202148438 c 0
 309.244140625 258.61328125 280.671875 336.344726562 315.3359375 407.142578125 c 0
 322.689453125 421.848632812 327.94140625 428.571289062 344.538085938 445.377929688 c 0
 362.60546875 463.4453125 385.083984375 480.251953125 409.6640625 493.697265625 c 2
 416.176757812 497.268554688 l 1
 403.571289062 512.60546875 l 2
 380.041992188 541.596679688 371.21875 566.176757812 371.008789062 603.571289062 c 0
 370.797851562 630.8828125 373.739257812 643.907226562 384.454101562 666.596679688 c 0
 407.352539062 714.075195312 453.78125 743.27734375 519.328125 751.680664062 c 0
575.840820312 656.72265625 m 0
 569.328125 660.50390625 562.815429688 661.974609375 550.840820312 662.60546875 c 0
 525.419921875 663.655273438 509.033203125 657.7734375 495.16796875 642.647460938 c 0
 486.5546875 632.983398438 482.563476562 621.21875 482.7734375 604.622070312 c 0
 482.7734375 591.176757812 486.344726562 581.72265625 495.587890625 570.16796875 c 0
 502.731445312 561.134765625 526.890625 541.596679688 530.8828125 541.596679688 c 0
 535.50390625 541.596679688 570.587890625 566.596679688 579.622070312 576.260742188 c 0
 593.27734375 591.176757812 599.370117188 606.092773438 598.319335938 622.478515625 c 0
 597.689453125 633.61328125 596.428710938 637.39453125 591.176757812 643.907226562 c 0
 587.60546875 648.319335938 580.671875 654.202148438 575.840820312 656.72265625 c 0
516.176757812 428.78125 m 0
 489.286132812 449.159179688 493.27734375 448.529296875 471.638671875 435.924804688 c 0
 449.580078125 423.109375 427.521484375 402.100585938 420.16796875 387.184570312 c 0
 412.39453125 371.21875 411.764648438 350 418.697265625 334.874023438 c 0
 428.571289062 313.655273438 450.840820312 302.94140625 481.932617188 304.622070312 c 0
 512.39453125 306.512695312 535.293945312 319.538085938 546.21875 341.176757812 c 0
 553.571289062 355.8828125 553.571289062 380.8828125 546.428710938 394.538085938 c 0
 538.4453125 409.6640625 532.142578125 416.806640625 516.176757812 428.78125 c 0
EndSplineSet
EndChar

StartChar: nine
Encoding: 57 57 61
Width: 1000
VWidth: 0
Flags: H
LayerCount: 2
Fore
SplineSet
509.6640625 749.580078125 m 0
 529.83203125 752.731445312 576.260742188 750.419921875 596.428710938 745.377929688 c 0
 686.5546875 723.109375 726.05078125 640.966796875 707.983398438 513.235351562 c 0
 696.428710938 431.512695312 674.580078125 366.596679688 642.647460938 317.857421875 c 0
 622.899414062 288.025390625 587.184570312 255.461914062 557.352539062 240.545898438 c 0
 507.142578125 215.125976562 435.924804688 206.092773438 375 217.2265625 c 0
 346.008789062 222.689453125 306.72265625 235.924804688 306.72265625 240.545898438 c 0
 306.72265625 242.2265625 338.235351562 323.529296875 339.49609375 325 c 0
 339.916015625 325.629882812 347.689453125 323.319335938 356.72265625 320.377929688 c 0
 380.8828125 311.764648438 403.571289062 308.193359375 431.72265625 308.193359375 c 0
 494.748046875 307.983398438 532.563476562 331.302734375 556.932617188 385.713867188 c 0
 562.60546875 398.109375 573.529296875 431.932617188 573.529296875 436.764648438 c 0
 573.529296875 437.815429688 568.487304688 436.5546875 562.60546875 434.033203125 c 0
 528.78125 420.587890625 493.697265625 414.706054688 461.344726562 417.647460938 c 0
 402.100585938 423.109375 360.083984375 456.72265625 346.638671875 509.244140625 c 0
 341.806640625 527.731445312 340.755859375 564.916015625 344.328125 586.134765625 c 0
 355.671875 653.151367188 394.1171875 705.671875 450.419921875 731.932617188 c 0
 467.2265625 739.49609375 490.3359375 746.428710938 509.6640625 749.580078125 c 0
558.193359375 654.83203125 m 0
 532.7734375 662.39453125 502.310546875 654.202148438 485.924804688 635.083984375 c 0
 465.125976562 611.134765625 454.412109375 566.596679688 462.60546875 539.286132812 c 0
 465.966796875 527.94140625 477.100585938 515.545898438 487.815429688 511.134765625 c 0
 507.983398438 502.731445312 549.790039062 508.61328125 580.251953125 523.94921875 c 0
 591.38671875 529.622070312 591.38671875 530.041992188 593.487304688 559.454101562 c 0
 595.16796875 582.142578125 592.2265625 607.983398438 586.134765625 624.159179688 c 0
 581.092773438 637.60546875 568.27734375 651.680664062 558.193359375 654.83203125 c 0
EndSplineSet
EndChar
